<?xml version="1.0" encoding="utf-8"?>
<!-- Generator: Adobe Illustrator 24.2.3, SVG Export Plug-In . SVG Version: 6.00 Build 0)  -->
<svg version="1.1" id="Слой_1" xmlns="http://www.w3.org/2000/svg" xmlns:xlink="http://www.w3.org/1999/xlink" x="0px" y="0px"
	 viewBox="0 0 100 100" style="enable-background:new 0 0 100 100;" xml:space="preserve">
<path d="M25,87.5h50c6.9,0,12.5-5.6,12.5-12.5V25c0-6.9-5.6-12.5-12.5-12.5H25c-6.9,0-12.5,5.6-12.5,12.5v50
	C12.5,81.9,18.1,87.5,25,87.5z M20.8,25c0-2.3,1.9-4.2,4.2-4.2h50c2.3,0,4.2,1.9,4.2,4.2v50c0,2.3-1.9,4.2-4.2,4.2H25
	c-2.3,0-4.2-1.9-4.2-4.2V25z"/>
<rect x="29.2" y="45.8" width="41.7" height="8.3"/>
<rect x="29.2" y="29.2" width="41.7" height="8.3"/>
<rect x="29.2" y="62.5" width="25" height="8.3"/>
</svg>
