<?xml version="1.0" standalone="no"?>
<!DOCTYPE svg PUBLIC "-//W3C//DTD SVG 1.1//EN" "http://www.w3.org/Graphics/SVG/1.1/DTD/svg11.dtd" >
<svg xmlns="http://www.w3.org/2000/svg" xmlns:xlink="http://www.w3.org/1999/xlink" version="1.1">
<metadata>
Created by FontForge 20170924 at Tue Jul 23 00:51:45 2019
 By www-data
Copyright (c) 2018 by Vasily Draigo aka Daymarius. All rights reserved.
</metadata>
<defs>
<font id="Antelive-Bold" horiz-adv-x="0" >
  <font-face 
    font-family="Antelive"
    font-weight="700"
    font-stretch="normal"
    units-per-em="2048"
    panose-1="2 11 7 2 2 2 2 2 2 4"
    ascent="1638"
    descent="-410"
    x-height="1135"
    cap-height="1513"
    bbox="-1194 -514 2560 2048"
    underline-thickness="184"
    underline-position="-374"
    unicode-range="U+001D-E093"
  />
<missing-glyph horiz-adv-x="1558" 
d="M451 129l327 487l330 -487h143v107l-368 522l368 520v106h-143l-330 -485l-327 485h-144v-106l371 -520l-371 -522v-107h144zM1403 0h-1247v1513h1247v-1513z" />
    <glyph glyph-name=".notdef" horiz-adv-x="1558" 
d="M451 129l327 487l330 -487h143v107l-368 522l368 520v106h-143l-330 -485l-327 485h-144v-106l371 -520l-371 -522v-107h144zM1403 0h-1247v1513h1247v-1513z" />
    <glyph glyph-name=".null" 
 />
    <glyph glyph-name=".null" 
 />
    <glyph glyph-name="nonmarkingreturn" horiz-adv-x="682" 
 />
    <glyph glyph-name="space" unicode=" " horiz-adv-x="573" 
 />
    <glyph glyph-name="exclam" unicode="!" horiz-adv-x="551" 
d="M162 385v1128h272v-1128h-272zM162 0v262h272v-262h-272z" />
    <glyph glyph-name="quotedbl" unicode="&#x22;" horiz-adv-x="575" 
d="M507 1051h-156v462h156v-462zM235 1051h-156v462h156v-462z" />
    <glyph glyph-name="numbersign" unicode="#" horiz-adv-x="1082" 
d="M497 864l-27 -182h178l25 182h-176zM399 1513h184l-60 -446h179l59 446h184l-59 -446h182v-203h-211l-24 -182h182v-205h-209l-65 -477h-185l66 477h-178l-64 -477h-186l65 477h-198v205h225l24 182h-196v203h225z" />
    <glyph glyph-name="dollar" unicode="$" horiz-adv-x="1192" 
d="M438 1518v235h260v-251q49 -29 88 -77v88h268v-403h-291q-6 76 -48 118t-112 42q-69 0 -112 -43t-43 -111q0 -85 88 -139q19 -13 164 -66q113 -43 162.5 -69.5t93.5 -67.5q135 -123 135 -315q0 -205 -139 -345q-108 -109 -254 -134v-156h-260v217q-31 26 -60 62v-103
h-268v432h293q18 -188 205 -188q91 0 147.5 51t56.5 133q0 101 -75 158q-34 25 -70.5 41t-185.5 71q-153 57 -234.5 163t-81.5 249q0 180 128 305q74 72 145 103z" />
    <glyph glyph-name="percent" unicode="%" horiz-adv-x="1763" 
d="M1344 496q-61 0 -104 -44.5t-43 -107.5t43.5 -107t105.5 -44q63 0 107.5 44t44.5 107t-45 107.5t-109 44.5zM419 1323q-61 0 -104.5 -44.5t-43.5 -107.5t44 -107t106 -44q63 0 107 44t44 107t-44.5 107.5t-108.5 44.5zM1088 1513h211l-626 -1513h-209zM423 1540
q151 0 259.5 -109t108.5 -260q0 -154 -108 -262t-262 -108t-262.5 108t-108.5 260q0 157 108 264t265 107zM1349 713q151 0 259.5 -109t108.5 -260q0 -154 -108.5 -262.5t-262.5 -108.5q-153 0 -261.5 108.5t-108.5 260.5q0 157 108 264t265 107z" />
    <glyph glyph-name="ampersand" unicode="&#x26;" horiz-adv-x="1440" 
d="M602 985q84 42 115.5 80t31.5 94q0 55 -34.5 90t-90.5 35q-55 0 -91 -35.5t-36 -89.5q0 -40 22.5 -78t82.5 -96zM772 406l-236 253q-97 -44 -139.5 -95.5t-42.5 -123.5q0 -86 58 -141t147 -55q69 0 114 34.5t99 127.5zM1205 619l-106 -181l271 -288l-195 -177l-215 228
q-97 -129 -180.5 -178.5t-204.5 -49.5q-209 0 -351 140t-142 344q0 138 66.5 240.5t215.5 189.5q-74 82 -100.5 139.5t-26.5 138.5q0 158 110 266.5t271 108.5q168 0 279.5 -106.5t111.5 -266.5q0 -155 -96 -262q-39 -44 -141 -108l137 -154l147 244h306v-268h-157z" />
    <glyph glyph-name="quotesingle" unicode="'" horiz-adv-x="326" 
d="M246 1051h-156v462h156v-462z" />
    <glyph glyph-name="parenleft" unicode="(" horiz-adv-x="751" 
d="M672 16v-297q-96 32 -166 80.5t-145 134.5q-121 138 -186.5 315t-65.5 365q0 221 86.5 421.5t238.5 334.5q55 48 105.5 78t132.5 65v-294q-139 -107 -213 -263t-74 -342q0 -180 80.5 -348t206.5 -250z" />
    <glyph glyph-name="parenright" unicode=")" horiz-adv-x="736" 
d="M76 1217v296q96 -33 167 -81.5t145 -133.5q121 -137 186 -314.5t65 -365.5q0 -221 -86.5 -421t-238.5 -334q-55 -48 -106 -78.5t-132 -65.5v295q139 107 213 262.5t74 341.5q0 180 -80.5 348.5t-206.5 250.5z" />
    <glyph glyph-name="asterisk" unicode="*" horiz-adv-x="654" 
d="M118 1446l129 65l90 -176l94 178l121 -73l-111 -170l199 12v-147l-199 10l109 -164l-117 -78l-96 180l-88 -180l-131 64l106 182l-200 -14v145l202 -10z" />
    <glyph glyph-name="plus" unicode="+" horiz-adv-x="1047" 
d="M412 881v399h245v-399h393v-242h-393v-399h-245v399h-394v242h394z" />
    <glyph glyph-name="comma" unicode="," horiz-adv-x="338" 
d="M53 0v262h272v-276q0 -172 -135 -244q-57 -29 -137 -29v137q64 12 92 38.5t28 74.5q0 23 -2 37h-118z" />
    <glyph glyph-name="hyphen" unicode="-" horiz-adv-x="634" 
d="M38 469v242h568v-242h-568z" />
    <glyph glyph-name="period" unicode="." horiz-adv-x="326" 
d="M50 0v262h272v-262h-272z" />
    <glyph glyph-name="slash" unicode="/" horiz-adv-x="739" 
d="M-58 -262l661 1775h193l-662 -1775h-192z" />
    <glyph glyph-name="zero" unicode="0" horiz-adv-x="1152" 
d="M380 1020v-506q0 -141 61.5 -216t178.5 -75q229 0 229 285v512q0 130 -60.5 200t-171.5 70q-110 0 -173.5 -72t-63.5 -198zM1121 1034v-528q0 -252 -130 -392.5t-363 -140.5q-279 0 -424 193q-96 130 -96 340v514q0 239 137 379.5t370 140.5q230 0 368 -138t138 -368z
" />
    <glyph glyph-name="one" unicode="1" horiz-adv-x="1152" 
d="M318 0v268h144v989h-190v256h463v-1245h144v-268h-561z" />
    <glyph glyph-name="two" unicode="2" horiz-adv-x="1152" 
d="M1055 0h-979v240l539 510q93 87 133.5 158t40.5 145q0 101 -62.5 169t-156.5 68q-106 0 -171 -82t-65 -217h-268q0 113 20 190.5t66 147.5q66 99 176 155t239 56q212 0 353 -140t141 -351q0 -139 -63.5 -250t-229.5 -262l-309 -281h308v144h288v-400z" />
    <glyph glyph-name="three" unicode="3" horiz-adv-x="1152" 
d="M459 729v262q98 3 149 23q84 38 84 133q0 63 -37 103t-96 40q-57 0 -87.5 -33t-39.5 -104h-276q8 96 30.5 154t73.5 110q117 123 297 123q175 0 291.5 -116t116.5 -291q0 -88 -30.5 -151t-96.5 -110q235 -107 235 -391q0 -220 -144 -364t-364 -144q-218 0 -364 136
t-158 350h274q14 -108 80.5 -172t165.5 -64q103 0 170.5 71.5t67.5 180.5q0 116 -80.5 185t-216.5 69h-45z" />
    <glyph glyph-name="four" unicode="4" horiz-adv-x="1152" 
d="M675 721v434l-377 -434h377zM531 0v268h144v209h-654v222l697 814h229v-792h160v-244h-160v-209h144v-268h-560z" />
    <glyph glyph-name="five" unicode="5" horiz-adv-x="1152" 
d="M122 723l141 790h684v-256h-479l-49 -278q58 25 99.5 34t94.5 9q207 0 343 -146.5t136 -369.5q0 -229 -146.5 -381t-367.5 -152q-140 0 -258 63t-189.5 173t-78.5 244h272q22 -111 85 -170.5t161 -59.5q110 0 180 78t70 201q0 116 -70 193t-176 77q-65 0 -112.5 -26
t-98.5 -89z" />
    <glyph glyph-name="six" unicode="6" horiz-adv-x="1152" 
d="M591 758q-107 0 -176 -76t-69 -193t72.5 -191.5t187.5 -74.5q107 0 175 74t68 192q0 119 -71.5 194t-186.5 75zM618 1513h326l-363 -538q59 20 123 20q182 0 300 -135t118 -344q0 -238 -145.5 -390.5t-372.5 -152.5q-150 0 -272 67.5t-190.5 187.5t-68.5 268
q0 111 33.5 206.5t116.5 217.5z" />
    <glyph glyph-name="seven" unicode="7" horiz-adv-x="1152" 
d="M160 1513h891v-256l-553 -1257h-307l573 1257h-316v-144h-288v400z" />
    <glyph glyph-name="eight" unicode="8" horiz-adv-x="1152" 
d="M616 1290q-64 0 -108.5 -48.5t-44.5 -117.5t45.5 -116t110.5 -47t109 48.5t44 118.5q0 69 -45 115.5t-111 46.5zM612 698q-95 0 -162 -69.5t-67 -167.5q0 -100 68 -169t168 -69q97 0 162 68.5t65 171.5q0 99 -67.5 167t-166.5 68zM328 842q-71 75 -98 136t-27 146
q0 173 121.5 294.5t294.5 121.5q178 0 295.5 -117.5t117.5 -294.5q0 -185 -127 -286q49 -30 74 -48.5t47 -43.5q92 -106 92 -275q0 -215 -143.5 -358.5t-358.5 -143.5t-360 144t-145 356q0 158 86 264q24 31 51.5 53.5t79.5 51.5z" />
    <glyph glyph-name="nine" unicode="9" horiz-adv-x="1152" 
d="M572 1290q-104 0 -170.5 -74.5t-66.5 -191.5q0 -118 70.5 -193t180.5 -75q108 0 178 75t70 193q0 119 -72.5 192.5t-189.5 73.5zM562 0h-326l365 539q-68 -25 -123 -25q-178 0 -297 138.5t-119 344.5q0 238 144 390.5t370 152.5q229 0 380 -149t151 -375q0 -108 -34 -203
t-116 -219z" />
    <glyph glyph-name="colon" unicode=":" horiz-adv-x="446" 
d="M113 0v262h272v-262h-272zM113 756v272h272v-272h-272z" />
    <glyph glyph-name="semicolon" unicode=";" horiz-adv-x="455" 
d="M115 0v262h272v-276q0 -75 -20.5 -123t-67.5 -88q-71 -62 -184 -62v137q66 12 93 39t27 80v31h-120zM115 756v272h272v-272h-272z" />
    <glyph glyph-name="less" unicode="&#x3c;" horiz-adv-x="1135" 
d="M1047 1192v-240l-699 -321l699 -326v-237l-1043 460v201z" />
    <glyph glyph-name="equal" unicode="=" horiz-adv-x="1199" 
d="M1123 1071v-242h-1032v242h1032zM1123 672v-242h-1032v242h1032z" />
    <glyph glyph-name="greater" unicode="&#x3e;" horiz-adv-x="1149" 
d="M103 68v237l701 322l-701 325v240l1043 -463v-201z" />
    <glyph glyph-name="question" unicode="?" horiz-adv-x="983" 
d="M622 383h-272q0 192 48.5 294.5t201.5 227.5q92 76 92 174q0 83 -55 137t-140 54q-83 0 -128.5 -50t-59.5 -155h-273q7 103 32 174.5t73 130.5q66 82 160.5 126t201.5 44q198 0 329.5 -134t131.5 -335q0 -103 -45 -182t-164 -184q-85 -72 -109 -130.5t-24 -191.5zM350 0
v262h272v-262h-272z" />
    <glyph glyph-name="at" unicode="@" horiz-adv-x="1668" 
d="M853 952q-85 0 -146 -66.5t-61 -158.5q0 -91 43.5 -143t118.5 -52q89 0 145.5 65.5t56.5 168.5q0 89 -41 137.5t-116 48.5zM1266 1174l-67 -605q-2 -8 -2 -26q0 -31 13 -44.5t42 -13.5q82 0 142.5 107.5t60.5 253.5q0 257 -160 416t-418 159q-184 0 -332 -84.5
t-231.5 -234t-83.5 -334.5q0 -144 58 -274t161 -220q83 -72 202 -111.5t249 -39.5q175 0 305 96l94 -123q-85 -66 -178.5 -94.5t-224.5 -28.5q-403 0 -633 285q-86 106 -132 238.5t-46 275.5q0 223 103 406t283 287t400 104q219 0 395 -102t263 -277q75 -153 75 -377
q0 -222 -119.5 -360t-312.5 -138q-162 0 -203 111q-39 -58 -93.5 -84.5t-137.5 -26.5q-155 0 -246.5 105.5t-91.5 284.5q0 204 118 340.5t296 136.5q83 0 136.5 -26.5t104.5 -92.5l15 111h196z" />
    <glyph glyph-name="A" unicode="A" horiz-adv-x="1504" 
d="M591 659h324l-162 459zM-21 0v268h144l408 977h-145v268h477l523 -1246v1h144v-268h-596v268h144l-51 123h-538l-53 -123h144v-268h-601z" />
    <glyph glyph-name="B" unicode="B" horiz-adv-x="1270" 
d="M526 268h139q147 0 214 45.5t67 145.5t-70.5 148t-216.5 48h-133v-387zM526 930h90q128 0 185 36.5t57 118.5q0 154 -217 154h-115v-309zM101 0v268h144v977h-144v268h456q173 0 260.5 -16.5t156.5 -62.5q78 -53 121 -137.5t43 -186.5q0 -107 -38.5 -172.5t-129.5 -112.5
q76 -31 116.5 -59t72.5 -72q69 -94 69 -243q0 -120 -54 -218t-152 -155q-135 -78 -373 -78h-548z" />
    <glyph glyph-name="C" unicode="C" horiz-adv-x="1600" 
d="M1215 1079q-77 100 -171 145.5t-226 45.5q-237 0 -377 -166q-58 -67 -91.5 -159t-33.5 -185q0 -139 68 -258t185 -188.5t255 -69.5q109 0 195.5 41t179.5 137h330q-89 -207 -277.5 -328t-421.5 -121q-109 0 -212.5 28t-190.5 79t-160.5 123.5t-124.5 159t-79.5 189
t-28.5 210.5q0 158 62 302t166 248t248 166t302 62q143 0 276 -47q93 -34 173 -108v128h268v-434h-314z" />
    <glyph glyph-name="D" unicode="D" horiz-adv-x="1523" 
d="M526 268h61q242 0 369 68q101 55 160 168t59 250q0 149 -64 264.5t-177 171.5q-64 31 -143 43t-210 12h-55v-977zM101 0v268h144v977h-144v268h491q371 0 552 -118q151 -97 232.5 -263.5t81.5 -377.5q0 -234 -101.5 -412.5t-281.5 -263.5q-92 -42 -201.5 -60t-275.5 -18
h-497z" />
    <glyph glyph-name="E" unicode="E" horiz-adv-x="1158" 
d="M101 0v268h144v977h-144v268h957v-412h-288v144h-244v-356h410v-268h-410v-353h244v144h288v-412h-957z" />
    <glyph glyph-name="F" unicode="F" horiz-adv-x="1096" 
d="M101 0v268h144v977h-144v268h957v-412h-288v144h-244v-356h410v-268h-410v-353h144v-268h-569z" />
    <glyph glyph-name="G" unicode="G" horiz-adv-x="1754" 
d="M1302 1378v135h268v-444h-330q-70 98 -177 149.5t-239 51.5q-109 0 -204.5 -38.5t-161.5 -109.5q-65 -69 -103.5 -168.5t-38.5 -197.5q0 -218 151 -365t374 -147q150 0 266 80t178 236h-477v262h840v-822h-247v271q-188 -287 -544 -298q-172 0 -324.5 61t-262 165.5
t-173 250.5t-63.5 310q0 161 62.5 305.5t168.5 248.5t253.5 165t311.5 61q163 0 315 -60q85 -33 157 -102z" />
    <glyph glyph-name="H" unicode="H" horiz-adv-x="1591" 
d="M245 1245h-144v268h569v-268h-144v-342h541v342h-144v268h568v-268h-144v-977h144v-268h-568v268h144v367h-541v-367h144v-268h-569v268h144v977z" />
    <glyph glyph-name="I" unicode="I" horiz-adv-x="770" 
d="M101 0v268h144v977h-144v268h569v-268h-144v-977h144v-268h-569z" />
    <glyph glyph-name="J" unicode="J" horiz-adv-x="972" 
d="M523 1245h-144v268h568v-268h-144v-811q0 -214 -109.5 -337.5t-299.5 -123.5q-98 0 -184.5 38t-145.5 106q-43 50 -63 102t-27 139h280q27 -114 134 -114q135 0 135 198v803z" />
    <glyph glyph-name="K" unicode="K" horiz-adv-x="1446" 
d="M909 1245h-50v268h527v-268h-144l-428 -475l436 -502h144v-268h-530v268h49l-387 448v-448h144v-268h-569v268h144v977h-144v268h569v-268h-144v-435z" />
    <glyph glyph-name="L" unicode="L" horiz-adv-x="1109" 
d="M101 0v268h144v977h-144v268h569v-268h-144v-977h244v144h288v-412h-957z" />
    <glyph glyph-name="M" unicode="M" horiz-adv-x="2070" 
d="M101 0v268h144v977h-144v268h529l408 -1146l403 1146h529v-268h-144v-977h144v-268h-568v268h144v867l-395 -1135h-230l-395 1135v-867h144v-268h-569z" />
    <glyph glyph-name="N" unicode="N" horiz-adv-x="1641" 
d="M101 0v268h144v977h-144v268h464l627 -1101v833h-144v268h568v-268h-144v-1245h-313l-633 1100v-832h144v-268h-569z" />
    <glyph glyph-name="O" unicode="O" horiz-adv-x="1628" 
d="M834 1540q158 0 302 -62t248 -166.5t165.5 -249.5t61.5 -304q0 -218 -103 -398t-282 -283.5t-396 -103.5q-164 0 -311.5 61t-253.5 165.5t-168.5 250t-62.5 306.5q0 163 62 308.5t168 249.5t254.5 165t315.5 61zM816 1270q-207 0 -353.5 -149.5t-146.5 -362.5
q0 -107 40 -202t108 -163.5t163 -108.5t201 -40q215 0 357.5 145t142.5 365q0 223 -145.5 369.5t-366.5 146.5z" />
    <glyph glyph-name="P" unicode="P" horiz-adv-x="1256" 
d="M526 844h82q128 0 192 20q60 17 94.5 64t34.5 112q0 72 -35 123t-96 68q-60 14 -178 14h-94v-401zM101 0v268h144v977h-144v268h519q155 0 243.5 -17t156.5 -60q92 -60 142 -161t50 -228q0 -135 -56.5 -245t-154.5 -165q-62 -34 -147 -48t-238 -14h-90v-307h144v-268
h-569z" />
    <glyph glyph-name="Q" unicode="Q" horiz-adv-x="1739" 
d="M1035 283q-131 105 -245.5 151.5t-239.5 46.5q-62 0 -146 -16q88 -114 197 -167.5t252 -53.5q59 0 97 8t85 31zM1236 418q123 126 123 327q0 226 -149 375.5t-373 149.5t-373.5 -147.5t-149.5 -368.5q0 -35 4 -70q108 27 234 27q181 0 363.5 -78t320.5 -215zM1668 225
v-254q-16 -2 -39 -2q-96 0 -177.5 28.5t-178.5 94.5q-82 -56 -193 -87.5t-225 -31.5q-169 0 -321.5 61.5t-262 166.5t-173.5 250t-64 307t62.5 307t169.5 249t256.5 165t316.5 61q170 0 319 -60t255 -164.5t167 -251.5t61 -314q0 -295 -182 -486q86 -45 152 -45q17 0 57 6z
" />
    <glyph glyph-name="R" unicode="R" horiz-adv-x="1346" 
d="M526 791h137q163 0 236 54.5t73 174.5q0 117 -77 176q-63 49 -244 49h-125v-454zM101 0v268h144v977h-144v268h581q161 0 255 -26.5t169 -93.5q149 -134 149 -365q0 -232 -164 -364q-47 -38 -96.5 -60.5t-134.5 -44.5l213 -291h196v-268h-346l-397 580v-312h144v-268
h-569z" />
    <glyph glyph-name="S" unicode="S" horiz-adv-x="1137" 
d="M753 1425v88h268v-403h-291q-6 76 -48 118t-112 42q-69 0 -112 -43t-43 -111q0 -85 88 -139q19 -13 164 -66q113 -43 162.5 -69.5t93.5 -67.5q135 -123 135 -315q0 -205 -139.5 -345.5t-343.5 -140.5q-124 0 -230 130v-103h-268v432h293q18 -188 205 -188q91 0 147.5 51
t56.5 133q0 101 -75 158q-34 25 -70.5 41t-185.5 71q-153 57 -234.5 163t-81.5 249q0 180 128 305t246 125q153 2 247 -115z" />
    <glyph glyph-name="T" unicode="T" horiz-adv-x="1245" 
d="M1213 1513v-412h-288v144h-143v-977h144v-268h-568v268h144v977h-143v-144h-288v412h1142z" />
    <glyph glyph-name="U" unicode="U" horiz-adv-x="1396" 
d="M205 1245h-144v268h569v-268h-144v-690q0 -85 7.5 -128.5t29.5 -80.5q29 -48 80 -75t112 -27q63 0 114.5 27t80.5 75q22 37 29.5 80.5t7.5 128.5v690h-144v268h568v-268h-144v-690q0 -136 -25.5 -228.5t-82.5 -166.5q-69 -88 -176.5 -137.5t-227.5 -49.5
q-136 0 -252.5 63.5t-181.5 172.5q-76 129 -76 346v690z" />
    <glyph glyph-name="V" unicode="V" horiz-adv-x="1497" 
d="M197 1245h-144v268h573v-268h-144l313 -883l312 883h-143v268h533v-268h-104l-482 -1245h-229z" />
    <glyph glyph-name="W" unicode="W" horiz-adv-x="2005" 
d="M193 1247v-2h-144v268h563v-268h-143l199 -788l258 1056h204l254 -1056l201 788h-144v268h564v-268h-144v1l-364 -1246h-223l-244 1001l-250 -1001h-221z" />
    <glyph glyph-name="X" unicode="X" horiz-adv-x="1416" 
d="M101 0v268h129l336 486l-337 491h-128v268h550v-268h-93l173 -260l179 260h-94v268h548v-268h-129l-340 -491l338 -486h131v-268h-550v268h94l-177 254l-171 -254h93v-268h-552z" />
    <glyph glyph-name="Y" unicode="Y" horiz-adv-x="1291" 
d="M397 0v268h144v291l-358 686h-134v268h520v-268h-94l207 -428l205 428h-93v268h519v-268h-134l-357 -686v-291h144v-268h-569z" />
    <glyph glyph-name="Z" unicode="Z" horiz-adv-x="1148" 
d="M420 1245v-144h-288v412h877v-251l-570 -994h321v144h288v-412h-947v238l574 1007h-255z" />
    <glyph glyph-name="bracketleft" unicode="[" horiz-adv-x="641" 
d="M565 1513v-301q-55 -23 -83.5 -47t-45.5 -61q-41 -90 -41 -246v-522q0 -125 41 -209q19 -38 47 -61.5t82 -45.5v-301q-124 28 -208 86.5t-146 159.5q-92 157 -92 418v530q0 288 166 451q54 55 113 86.5t167 62.5z" />
    <glyph glyph-name="backslash" unicode="\" horiz-adv-x="985" 
d="M922 0h-193l-666 1513h193z" />
    <glyph glyph-name="bracketright" unicode="]" horiz-adv-x="641" 
d="M76 -281v301q55 23 83 47.5t46 61.5q41 90 41 246v522q0 125 -41 209q-19 38 -47 61t-82 45v301q125 -28 209 -86t145 -159q92 -157 92 -418v-531q0 -286 -164 -450q-55 -55 -115.5 -87.5t-166.5 -62.5z" />
    <glyph glyph-name="asciicircum" unicode="^" horiz-adv-x="1228" 
d="M336 641l-213 102l366 770h250l367 -770l-213 -102l-279 565z" />
    <glyph glyph-name="underscore" unicode="_" horiz-adv-x="1024" 
d="M0 -98h1024v-185h-1024v185z" />
    <glyph glyph-name="grave" unicode="`" horiz-adv-x="833" 
d="M131 1509l117 181l454 -273l-108 -162z" />
    <glyph glyph-name="a" unicode="a" horiz-adv-x="1421" 
d="M630 911q-142 0 -234.5 -100t-92.5 -254q0 -149 93.5 -241.5t242.5 -92.5q148 0 238.5 94t90.5 246q0 154 -94.5 251t-243.5 97zM1350 1135v-268h-124v-599h124v-268h-373v147q-82 -93 -169.5 -133.5t-207.5 -40.5q-164 0 -294.5 75.5t-204 210.5t-73.5 304
q0 171 74 307.5t206 213.5t298 77q123 0 212 -42.5t159 -135.5v152h373z" />
    <glyph glyph-name="b" unicode="b" horiz-adv-x="1447" 
d="M790 926q-142 0 -233.5 -100t-91.5 -255q0 -153 94 -250.5t241 -97.5q146 0 238 96.5t92 251.5q0 157 -94.5 256t-245.5 99zM209 1245h-124v268h396v-483q80 79 160.5 112.5t191.5 33.5q162 0 293 -78t205 -215.5t74 -307.5q0 -231 -133 -403q-156 -199 -420 -199
q-126 0 -216 39t-178 133v-145h-373v268h124v977z" />
    <glyph glyph-name="c" unicode="c" horiz-adv-x="1263" 
d="M891 756q-80 155 -265 155q-142 0 -232.5 -95.5t-90.5 -246.5q0 -149 94.5 -247.5t235.5 -98.5q84 0 145.5 36t112.5 114h307q-71 -191 -217.5 -295.5t-345.5 -104.5q-124 0 -236.5 47t-193.5 126t-129 189t-48 232q0 164 79 300.5t216.5 215t302.5 78.5q95 -6 173.5 -45
t130.5 -101v120h268v-379h-307z" />
    <glyph glyph-name="d" unicode="d" horiz-adv-x="1417" 
d="M630 926q-138 0 -232.5 -100t-94.5 -248q0 -149 98.5 -252t239.5 -103q138 0 233.5 101t95.5 247q0 154 -96 254.5t-244 100.5zM950 1245h-124v268h396v-1245h124v-268h-374v147q-83 -92 -171 -133t-203 -41q-159 0 -289.5 78t-205.5 215t-75 303q0 167 75.5 307t206 220
t286.5 80q107 0 200.5 -38t153.5 -104v211z" />
    <glyph glyph-name="e" unicode="e" horiz-adv-x="1254" 
d="M315 686h629q-26 109 -107 167t-207 58q-122 0 -202.5 -57.5t-112.5 -167.5zM1202 446h-879q25 -103 109 -163t205 -60q84 0 140 25.5t109 87.5h297q-24 -77 -90 -158q-176 -205 -450 -205q-128 0 -242 46t-195.5 124.5t-129.5 188t-48 231.5q0 164 79.5 301.5t217 217
t301.5 79.5q167 0 301 -78.5t209.5 -218t75.5 -313.5q0 -56 -10 -105z" />
    <glyph glyph-name="f" unicode="f" horiz-adv-x="707" 
d="M69 0v268h124v619h-98v227h98q10 109 31 169t66 110q105 120 278 120q35 0 68 -4v-258h-29q-78 0 -108.5 -30t-32.5 -107h153v-227h-153v-619h124v-268h-521z" />
    <glyph glyph-name="g" unicode="g" horiz-adv-x="1407" 
d="M614 911q-140 0 -225.5 -95.5t-85.5 -252.5q0 -155 86.5 -247.5t232.5 -92.5q148 0 236 93.5t88 250.5q0 154 -91.5 249t-240.5 95zM1218 867v-652q0 -169 -29.5 -280.5t-95.5 -190.5q-162 -197 -463 -197q-208 0 -361 95t-222 266h309q60 -66 125 -93.5t160 -27.5
q152 0 231 90t86 273q-80 -94 -166.5 -135.5t-206.5 -41.5q-160 0 -287.5 77t-198.5 214.5t-71 310.5q0 252 159 419t400 167q244 0 371 -170v144h384v-268h-124z" />
    <glyph glyph-name="h" unicode="h" horiz-adv-x="1330" 
d="M85 0v268h124v977h-124v268h396v-456q117 106 289 106q125 0 222.5 -48.5t152.5 -139.5q38 -63 53.5 -138t15.5 -196v-373h124v-268h-396v580q0 180 -50.5 255.5t-170.5 75.5q-145 0 -203 -114q-37 -67 -37 -222v-307h124v-268h-520z" />
    <glyph glyph-name="i" unicode="i" horiz-adv-x="602" 
d="M214 1257v256h272v-256h-272zM90 0v268h124v599h-124v268h396v-867h124v-268h-520z" />
    <glyph glyph-name="j" unicode="j" horiz-adv-x="577" 
d="M183 1257v256h273v-256h-273zM456 1135v-1059q0 -127 -29 -212.5t-92 -144.5q-106 -98 -264 -98v264q41 7 61 15t33 31t15.5 54.5t2.5 96.5v785h-124v268h397z" />
    <glyph glyph-name="k" unicode="k" horiz-adv-x="1152" 
d="M691 887h-76v248h470v-248h-81l-224 -307l253 -312h118v-268h-267l-387 530v-530h-396v268h124v977h-124v268h396v-913z" />
    <glyph glyph-name="l" unicode="l" horiz-adv-x="613" 
d="M101 0v268h124v977h-124v268h396v-1245h124v-268h-520z" />
    <glyph glyph-name="m" unicode="m" horiz-adv-x="2031" 
d="M90 0v268h124v599h-124v268h373v-107q60 72 127.5 102.5t167.5 30.5q119 0 197.5 -41t136.5 -135q69 92 156 134t207 42q134 0 236.5 -49.5t156.5 -140.5q67 -118 67 -316v-387h124v-268h-396v623q0 87 -13 139t-42 84q-56 65 -158 65q-137 0 -194 -114q-35 -71 -35 -238
v-291h124v-268h-397v623q0 158 -51 221q-58 67 -168 67q-145 0 -196 -123q-27 -67 -27 -229v-291h124v-268h-520z" />
    <glyph glyph-name="n" unicode="n" horiz-adv-x="1335" 
d="M90 0v268h124v599h-124v268h375v-109q75 73 148 104t172 31q248 0 362 -174q41 -66 57.5 -149t16.5 -230v-340h122v-268h-394v555q0 220 -58 289q-55 67 -159 67q-140 0 -203 -110q-25 -39 -34 -97t-9 -169v-267h124v-268h-520z" />
    <glyph glyph-name="o" unicode="o" horiz-adv-x="1277" 
d="M637 1161q162 0 300 -80t218 -217.5t80 -298.5q0 -160 -80.5 -296.5t-219.5 -216t-302 -79.5q-164 0 -303.5 79.5t-220.5 216t-81 296.5q0 122 47.5 232.5t129 190t194.5 126.5t238 47zM626 911q-132 0 -227.5 -101.5t-95.5 -242.5q0 -142 96 -243t231 -101
q136 0 233 100.5t97 241.5q0 146 -97 246t-237 100z" />
    <glyph glyph-name="p" unicode="p" horiz-adv-x="1412" 
d="M764 911q-138 0 -231.5 -99.5t-93.5 -248.5q0 -145 96 -242.5t237 -97.5q137 0 230.5 98.5t93.5 243.5q0 150 -94 248t-238 98zM59 -379v268h124v978h-124v268h373v-134q135 160 373 160q162 0 291 -75.5t201.5 -210.5t72.5 -304q0 -170 -73 -306.5t-202.5 -214
t-291.5 -77.5q-104 0 -187 32t-161 101v-217h124v-268h-520z" />
    <glyph glyph-name="q" unicode="q" horiz-adv-x="1407" 
d="M630 911q-138 0 -232.5 -100t-94.5 -246q0 -148 94.5 -245t239.5 -97q140 0 232.5 96.5t92.5 243.5q0 152 -93 250t-239 98zM1218 -111h124v-268h-520v268h124v220q-136 -136 -342 -136q-161 0 -293 78.5t-207.5 215.5t-75.5 304q0 162 76 298t207.5 214t288.5 78
q124 0 212 -41.5t156 -130.5v146h374v-268h-124v-978z" />
    <glyph glyph-name="r" unicode="r" horiz-adv-x="712" 
d="M90 0v268h124v599h-124v268h373v-111q54 79 106 108t140 29h21v-262q-244 -6 -244 -268v-363h124v-268h-520z" />
    <glyph glyph-name="s" unicode="s" horiz-adv-x="961" 
d="M641 1051v84h218v-314h-266q-18 90 -106 90q-44 0 -74.5 -27.5t-30.5 -68.5q0 -52 53 -76q29 -12 140 -47q172 -53 243.5 -128t71.5 -204q0 -163 -118 -275t-288 -112q-137 18 -197 124v-97h-218v360h274q20 -72 56 -104.5t96 -32.5q54 0 88.5 31.5t34.5 79.5
q0 56 -52 88q-22 13 -43 22t-98 35q-170 57 -242.5 134t-72.5 202q0 146 108.5 246t214.5 100q135 0 208 -110z" />
    <glyph glyph-name="t" unicode="t" horiz-adv-x="705" 
d="M192 0v887h-133v248h133v378h272v-378h164v-248h-164v-619h124v-268h-396z" />
    <glyph glyph-name="u" unicode="u" horiz-adv-x="1292" 
d="M904 867h-124v268h396v-867h124v-268h-376v109q-78 -75 -150.5 -105.5t-174.5 -30.5q-115 0 -206 46.5t-147 132.5q-44 69 -62 152t-18 222v341h-124v268h397v-555q0 -118 13 -184.5t44 -104.5q59 -68 158 -68q71 0 126.5 28.5t84.5 80.5q22 38 30.5 98.5t8.5 169.5v267z
" />
    <glyph glyph-name="v" unicode="v" horiz-adv-x="1168" 
d="M132 867h-108v268h446v-268h-50l169 -484l166 484h-50v268h450v-268h-108l-349 -867h-217z" />
    <glyph glyph-name="w" unicode="w" horiz-adv-x="1624" 
d="M120 867h-96v268h417v-268h-45l124 -425l190 693h217l187 -693l127 425h-44v268h414v-268h-97l-312 -867h-170l-215 735l-219 -735h-168z" />
    <glyph glyph-name="x" unicode="x" horiz-adv-x="1143" 
d="M44 0v268h130l218 318l-179 281h-120v268h382v-208l80 -134l77 131v211h382v-268h-120l-177 -281l219 -318h130v-268h-397v203l-114 186l-113 -185v-204h-398z" />
    <glyph glyph-name="y" unicode="y" horiz-adv-x="1188" 
d="M227 -379v268h118l95 217l-308 761h-108v268h455v-268h-52l160 -468l175 468h-44v268h457v-268h-116l-423 -978h114v-268h-523z" />
    <glyph glyph-name="z" unicode="z" horiz-adv-x="980" 
d="M370 891v-124h-268v368h768v-244l-500 -647h271v124h268v-368h-865v244l500 647h-174z" />
    <glyph glyph-name="braceleft" unicode="{" horiz-adv-x="686" 
d="M463 1141v-252q0 -120 -40.5 -178t-143.5 -86q101 -25 142.5 -84t41.5 -179v-251q0 -47 1.5 -75.5t8.5 -53t16.5 -37t29.5 -22.5t43.5 -14t62.5 -7v-164q-33 -2 -88 -2q-152 0 -220.5 67.5t-68.5 216.5v322q0 93 -40 142t-126 59v166q86 10 126 58.5t40 141.5v322
q0 149 68.5 217t220.5 68q39 0 88 -3v-163q-39 -3 -62.5 -7t-43.5 -14t-29.5 -22.5t-16.5 -37t-8.5 -53t-1.5 -75.5z" />
    <glyph glyph-name="bar" unicode="|" horiz-adv-x="1226" 
d="M735 1513v-1513h-243v1513h243z" />
    <glyph glyph-name="braceright" unicode="}" horiz-adv-x="686" 
d="M223 111v251q0 120 41 178.5t144 86.5q-102 25 -143.5 83.5t-41.5 178.5v252q0 47 -1.5 75.5t-8.5 53t-16.5 37t-29.5 22.5t-43.5 14t-62.5 7v163q50 3 89 3q152 0 220 -67.5t68 -217.5v-322q0 -93 40 -141.5t126 -58.5v-166q-86 -10 -126 -59t-40 -142v-322
q0 -149 -68 -216.5t-220 -67.5q-56 0 -89 2v164q39 3 62.5 7t43.5 14t29.5 22.5t16.5 37t8.5 53t1.5 75.5z" />
    <glyph glyph-name="asciitilde" unicode="~" horiz-adv-x="1228" 
d="M999 862l131 -151q-80 -131 -146.5 -185.5t-149.5 -54.5q-70 0 -187 49l-110 45q-93 39 -131 39q-58 0 -101 -49q-8 -10 -63 -96q-3 -3 -15 -21l-129 154q56 97 99 147q38 50 92 77.5t112 27.5q74 0 158 -33l137 -55q83 -34 101.5 -39.5t44.5 -5.5q36 0 77.5 40t79.5 111
z" />
    <glyph glyph-name="uni00A0" unicode="&#xa0;" horiz-adv-x="573" 
 />
    <glyph glyph-name="exclamdown" unicode="&#xa1;" horiz-adv-x="657" 
d="M465 750v-1129h-272v1129h272zM465 1135v-263h-272v263h272z" />
    <glyph glyph-name="cent" unicode="&#xa2;" horiz-adv-x="1146" 
d="M766 907q-31 43 -82.5 68.5t-108.5 25.5q-92 0 -152.5 -64t-60.5 -161q0 -96 63 -159.5t159 -63.5q101 0 174 82h299q-103 -269 -344 -332v-223h-256v223q-77 17 -131 47.5t-105 85.5q-63 66 -97 156.5t-34 187.5q0 104 41.5 200t116.5 165q45 41 91 64t118 42v213h256
v-213q106 -26 146 -101v75h198v-318h-291z" />
    <glyph glyph-name="sterling" unicode="&#xa3;" horiz-adv-x="1146" 
d="M84 0v256h285q41 68 41 147q0 64 -27 117t-92 115h-291v256h119q-35 77 -35 166q0 203 142 343t347 140q196 0 329.5 -120t150.5 -312h-277q-22 87 -74.5 134.5t-126.5 47.5q-92 0 -155.5 -70t-63.5 -173q0 -91 56 -156h424v-256h-220q37 -71 51.5 -120.5t14.5 -104.5
q0 -71 -27 -154q81 0 131 27q44 26 69.5 71t25.5 97q0 43 -21 110h270q23 -62 23 -106q0 -99 -41 -190t-113 -154q-72 -62 -157 -86.5t-226 -24.5h-532z" />
    <glyph glyph-name="currency" unicode="&#xa4;" horiz-adv-x="1146" 
d="M575 1077q-107 0 -184.5 -76t-77.5 -180q0 -108 77 -185t185 -77q107 0 183 75t76 181q0 110 -75 186t-184 76zM55 1176l164 163l92 -90q125 74 262 74q143 0 271 -74l92 88l158 -166l-86 -88q44 -76 59.5 -131.5t15.5 -134.5t-16.5 -135.5t-60.5 -126.5l86 -88
l-158 -164l-90 86q-130 -76 -269 -76q-141 0 -268 76l-90 -86l-162 166l86 88q-44 85 -58.5 136t-14.5 126q0 76 14 126.5t59 137.5z" />
    <glyph glyph-name="yen" unicode="&#xa5;" horiz-adv-x="1146" 
d="M432 0v383h-401v180h401l-115 215h-286v180h192l-289 555h306l327 -698l330 698h315l-292 -555h188v-180h-287l-116 -215h403v-180h-403v-383h-273z" />
    <glyph glyph-name="brokenbar" unicode="&#xa6;" horiz-adv-x="1228" 
d="M735 1513v-618h-243v618h243zM735 618v-618h-243v618h243z" />
    <glyph glyph-name="section" unicode="&#xa7;" horiz-adv-x="1146" 
d="M696 694l-305 152q-43 -34 -61.5 -61.5t-18.5 -59.5q0 -35 28.5 -65t94.5 -64l309 -156q35 25 55.5 59.5t20.5 69.5q0 37 -24.5 62t-98.5 63zM1008 1153h-258q-13 72 -56 104.5t-121 32.5q-65 0 -102 -26.5t-37 -73.5q0 -82 125 -141l336 -166q82 -40 130 -117t48 -168
q0 -85 -39.5 -160t-113.5 -131q55 -55 78.5 -112.5t23.5 -131.5q0 -169 -123.5 -277t-316.5 -108q-242 0 -375 168q-44 57 -65.5 117t-28.5 150h274q0 -61 14 -93q23 -43 71.5 -67.5t111.5 -24.5q77 0 127.5 37.5t50.5 95.5q0 44 -30 74t-120 76l-333 172q-207 104 -207 328
q0 96 37.5 166t121.5 133q-57 85 -57 190q0 151 114.5 245.5t297.5 94.5q184 0 290.5 -98t131.5 -289z" />
    <glyph glyph-name="dieresis" unicode="&#xa8;" horiz-adv-x="964" 
d="M131 1290v273h272v-273h-272zM561 1290v273h273v-273h-273z" />
    <glyph glyph-name="copyright" unicode="&#xa9;" horiz-adv-x="1702" 
d="M1054 864q-25 68 -80.5 108t-124.5 40q-97 0 -162 -71t-65 -177t65.5 -179t161.5 -73q137 0 205 143h227q-37 -150 -154.5 -241.5t-273.5 -91.5q-187 0 -316.5 127.5t-129.5 312.5q0 186 128 313t316 127q136 0 247 -113v76h183v-301h-227zM835 1382q-124 0 -238.5 -50
t-198 -133.5t-133 -199t-49.5 -241.5q0 -168 84 -311t228 -226.5t313 -83.5q127 0 243.5 49.5t200.5 132.5t133.5 197.5t49.5 239.5q0 172 -84 316t-229.5 227t-319.5 83zM851 1540q158 0 302 -62.5t249 -167.5t167 -250.5t62 -303.5q0 -159 -62.5 -304t-168 -250
t-251.5 -167t-306 -62q-161 0 -307 62t-252 167t-169 250t-63 304q0 161 62.5 306.5t169 250t255 166t312.5 61.5z" />
    <glyph glyph-name="ordfeminine" unicode="&#xaa;" horiz-adv-x="782" 
d="M696 1513v-610h-135v84q-78 -104 -209 -104q-123 0 -207 95t-84 234q0 136 87.5 230t213.5 94q122 0 199 -102v79h135zM381 1384q-68 0 -116 -52.5t-48 -125.5q0 -72 48.5 -122t117.5 -50q71 0 118.5 50.5t47.5 125.5t-48 124.5t-120 49.5zM68 635v143h637v-143h-637z
" />
    <glyph glyph-name="guillemotleft" unicode="&#xab;" horiz-adv-x="942" 
d="M813 221l-285 268v205l285 267v-252l-137 -117l137 -119v-252zM377 221l-285 268v205l285 267v-252l-137 -117l137 -119v-252z" />
    <glyph glyph-name="logicalnot" unicode="&#xac;" horiz-adv-x="1228" 
d="M90 969h1032v-596h-233v362h-799v234z" />
    <glyph glyph-name="uni00AD" unicode="&#xad;" horiz-adv-x="690" 
d="M61 469v242h568v-242h-568z" />
    <glyph glyph-name="registered" unicode="&#xae;" horiz-adv-x="1619" 
d="M721 762h76q68 0 104.5 31t36.5 88q0 55 -35.5 84.5t-103.5 29.5h-78v-233zM448 340v148h66v550h-66v148h334q105 0 160 -13.5t98 -48.5q49 -38 77 -99.5t28 -129.5q0 -104 -57 -176.5t-152 -89.5l112 -141h77v-148h-207l-197 274v-126h66v-148h-339zM803 1382
q-124 0 -238.5 -50t-198 -133.5t-133 -199t-49.5 -241.5q0 -168 84 -311t228 -226.5t313 -83.5q127 0 243.5 49.5t200.5 132.5t133.5 197.5t49.5 239.5q0 172 -84 316t-229.5 227t-319.5 83zM819 1540q158 0 302 -62.5t249 -167.5t167 -250.5t62 -303.5q0 -159 -62.5 -304
t-168 -250t-251.5 -167t-306 -62q-161 0 -307 62t-252 167t-169 250t-63 304q0 161 62.5 306.5t169 250t255 166t312.5 61.5z" />
    <glyph glyph-name="macron" unicode="&#xaf;" horiz-adv-x="829" 
d="M131 1327v205h567v-205h-567z" />
    <glyph glyph-name="degree" unicode="&#xb0;" horiz-adv-x="819" 
d="M410 1288q-79 0 -136 -58t-57 -138q0 -82 56.5 -139.5t136.5 -57.5t135 57t55 140t-55 139.5t-135 56.5zM418 1405q126 0 212.5 -90.5t86.5 -222.5t-89 -223t-218 -91t-218.5 92t-89.5 224q0 131 91.5 221t224.5 90z" />
    <glyph glyph-name="plusminus" unicode="&#xb1;" horiz-adv-x="1228" 
d="M492 938v399h245v-399h393v-242h-393v-338h-245v338h-394v242h394zM1130 242v-242h-1032v242h1032z" />
    <glyph glyph-name="uni00B2" unicode="&#xb2;" horiz-adv-x="688" 
d="M664 606h-637v152l348 303q63 57 87.5 95t24.5 79q0 57 -39.5 95t-99.5 38q-69 0 -108.5 -46t-40.5 -130h-179q0 73 13 121t45 90q41 60 112.5 93.5t155.5 33.5q138 0 230 -85t92 -214q0 -162 -183 -307l-192 -154h194v95h177v-259z" />
    <glyph glyph-name="uni00B3" unicode="&#xb3;" horiz-adv-x="688" 
d="M260 1036v168q94 1 132 20.5t38 65.5q0 34 -25 56t-63 22q-40 0 -59 -18.5t-27 -63.5h-182q6 64 21 100t50 68q77 74 195 74q117 0 193.5 -70.5t76.5 -177.5q0 -98 -69 -152q65 -31 100 -90.5t35 -138.5q0 -133 -93.5 -221t-236.5 -88q-144 0 -238 83.5t-102 217.5h180
q9 -66 51.5 -102.5t108.5 -36.5t109 40t43 101q0 66 -53 104.5t-142 38.5h-43z" />
    <glyph glyph-name="acute" unicode="&#xb4;" horiz-adv-x="831" 
d="M236 1255l-105 160l459 275l110 -189z" />
    <glyph glyph-name="mu" unicode="&#xb5;" horiz-adv-x="1230" 
d="M383 106v-485h-272v1514h272v-535q0 -127 8.5 -175t40.5 -93q73 -109 195 -109q60 0 110 29t76 80q35 71 35 268v535h272v-1135h-252v109q-62 -74 -119.5 -105t-134.5 -31q-72 0 -126 31t-105 102z" />
    <glyph glyph-name="paragraph" unicode="&#xb6;" horiz-adv-x="1228" 
d="M494 -262v938q-187 3 -302.5 118t-115.5 298q0 121 55.5 217t155.5 147q117 57 346 57h446v-1775h-207v1556h-172v-1556h-206z" />
    <glyph glyph-name="periodcentered" unicode="&#xb7;" horiz-adv-x="575" 
d="M152 614v273h272v-273h-272z" />
    <glyph glyph-name="cedilla" unicode="&#xb8;" horiz-adv-x="663" 
d="M223 0h107l-43 -119q41 15 59 15q76 0 131 -61t55 -146q0 -91 -54 -147t-142 -56q-78 0 -135.5 49t-69.5 125h125q27 -61 78 -61q33 0 56.5 27.5t23.5 66.5q0 37 -23 63.5t-55 26.5q-23 0 -40.5 -12t-39.5 -43l-106 53z" />
    <glyph glyph-name="uni00B9" unicode="&#xb9;" horiz-adv-x="688" 
d="M192 606v177h95v567h-121v163h301v-730h95v-177h-370z" />
    <glyph glyph-name="ordmasculine" unicode="&#xba;" horiz-adv-x="751" 
d="M373 1393q-66 0 -114 -49.5t-48 -118.5q0 -72 47 -120t119 -48q70 0 117 48t47 120q0 69 -49.5 118.5t-118.5 49.5zM381 1536q127 0 218 -92t91 -221q0 -132 -91.5 -225t-221.5 -93t-223 94t-93 226q0 130 93 220.5t227 90.5zM61 637v143h629v-143h-629z" />
    <glyph glyph-name="guillemotright" unicode="&#xbb;" horiz-adv-x="942" 
d="M129 221v252l137 119l-137 117v252l285 -267v-205zM565 221v252l137 119l-137 117v252l285 -267v-205z" />
    <glyph glyph-name="onequarter" unicode="&#xbc;" horiz-adv-x="1720" 
d="M1346 391v255l-209 -255h209zM362 0l627 1513h195l-627 -1513h-195zM1251 0v157h95v78h-398v137l426 535h152v-516h98v-156h-98v-78h95v-157h-370zM406 783h95v-177h-371v177h95v567h-121v163h302v-730z" />
    <glyph glyph-name="onehalf" unicode="&#xbd;" horiz-adv-x="1720" 
d="M311 0l627 1513h195l-627 -1513h-195zM1599 0h-636v152l348 303q63 57 87.5 95t24.5 79q0 57 -39.5 95t-99.5 38q-69 0 -108.5 -46t-40.5 -130h-179q0 72 13.5 120t44.5 91q41 60 112.5 93.5t155.5 33.5q138 0 230 -85t92 -214q0 -163 -183 -308l-192 -153h193v95h177
v-259zM122 606v177h95v567h-121v163h301v-730h95v-177h-370z" />
    <glyph glyph-name="threequarters" unicode="&#xbe;" horiz-adv-x="1720" 
d="M1438 391v255l-209 -255h209zM516 0l627 1513h194l-626 -1513h-195zM1343 0v157h95v78h-398v137l426 535h152v-516h98v-156h-98v-78h95v-157h-370zM266 1036v168q94 1 132 20.5t38 65.5q0 34 -25 56t-63 22q-40 0 -59 -18.5t-27 -63.5h-182q6 63 21.5 99.5t50.5 68.5
q77 74 194 74t193.5 -70.5t76.5 -177.5q0 -98 -69 -152q65 -31 100 -90.5t35 -138.5q0 -133 -93.5 -221t-236.5 -88q-144 0 -238 83.5t-102 217.5h181q9 -66 51 -102.5t108 -36.5t109 40t43 101q0 66 -53 104.5t-142 38.5h-43z" />
    <glyph glyph-name="questiondown" unicode="&#xbf;" horiz-adv-x="1062" 
d="M414 752h272v-31q0 -202 -82 -320q-31 -46 -57.5 -73.5t-110.5 -98.5q-92 -80 -92 -174q0 -83 55 -136.5t140 -53.5q164 0 188 205h272q-9 -106 -33 -177t-71 -129q-66 -81 -161.5 -125.5t-201.5 -44.5q-198 0 -329 134t-131 335q0 103 45.5 183t163.5 184
q82 71 107.5 128t25.5 167v27zM686 1135v-263h-272v263h272z" />
    <glyph glyph-name="Agrave" unicode="&#xc0;" horiz-adv-x="1504" 
d="M591 659h324l-162 459zM350 1868l117 180l455 -272l-109 -162zM-21 0v268h144l408 977h-145v268h477l523 -1246v1h144v-268h-596v268h144l-51 123h-538l-53 -123h144v-268h-601z" />
    <glyph glyph-name="Aacute" unicode="&#xc1;" horiz-adv-x="1504" 
d="M591 659h324l-162 459zM592 1614l-104 160l458 274l111 -188zM-21 0v268h144l408 977h-145v268h477l523 -1246v1h144v-268h-596v268h144l-51 123h-538l-53 -123h144v-268h-601z" />
    <glyph glyph-name="Acircumflex" unicode="&#xc2;" horiz-adv-x="1504" 
d="M591 659h324l-162 459zM297 1649l301 282h219l297 -282h-297l-108 131l-111 -131h-301zM-21 0v268h144l408 977h-145v268h477l523 -1246v1h144v-268h-596v268h144l-51 123h-538l-53 -123h144v-268h-601z" />
    <glyph glyph-name="Atilde" unicode="&#xc3;" horiz-adv-x="1504" 
d="M591 659h324l-162 459zM477 1661l-110 164q54 54 100 75t111 21q34 0 56.5 -5t66.5 -24q56 -22 96 -22q76 0 137 69l111 -165q-50 -60 -94.5 -86.5t-98.5 -26.5q-41 0 -121 27q-66 24 -110 24q-40 0 -63 -8t-81 -43zM-21 0v268h144l408 977h-145v268h477l523 -1246v1h144
v-268h-596v268h144l-51 123h-538l-53 -123h144v-268h-601z" />
    <glyph glyph-name="Adieresis" unicode="&#xc4;" horiz-adv-x="1504" 
d="M591 659h324l-162 459zM355 1649v272h272v-272h-272zM-21 0v268h144l408 977h-145v268h477l523 -1246v1h144v-268h-596v268h144l-51 123h-538l-53 -123h144v-268h-601zM785 1649v272h272v-272h-272z" />
    <glyph glyph-name="Aring" unicode="&#xc5;" horiz-adv-x="1504" 
d="M703 1892q-30 0 -51 -21t-21 -52t21.5 -52.5t52.5 -21.5t52 21.5t21 52.5t-21.5 52t-53.5 21zM591 659h324l-162 459zM707 2030q86 0 147.5 -62.5t61.5 -148.5q0 -88 -61.5 -149.5t-149.5 -61.5t-149.5 61.5t-61.5 149.5t62 149.5t151 61.5zM-21 0v268h144l408 977h-145
v268h477l523 -1246v1h144v-268h-596v268h144l-51 123h-538l-53 -123h144v-268h-601z" />
    <glyph glyph-name="AE" unicode="&#xc6;" horiz-adv-x="1739" 
d="M518 391l-73 -123h144v-268h-622v268h151l623 977h-143v268h1041v-412h-288v144h-159v-356h324v-268h-324v-353h159v144h288v-412h-727v391h-394zM678 659h234v392z" />
    <glyph glyph-name="Ccedilla" unicode="&#xc7;" horiz-adv-x="1600" 
d="M1215 1079q-77 100 -171 145.5t-226 45.5q-237 0 -377 -166q-58 -67 -91.5 -159t-33.5 -185q0 -139 68 -258t185 -188.5t255 -69.5q109 0 195.5 41t179.5 137h330q-92 -210 -281.5 -329.5t-429.5 -119.5h-29l-32 -92q41 15 59 15q76 0 131 -61t55 -146q0 -91 -54 -147
t-142 -56q-78 0 -135.5 49t-69.5 125h127q24 -61 76 -61q34 0 57 27t23 67q0 37 -23 63.5t-55 26.5q-23 0 -40.5 -12t-37.5 -43l-109 53l68 205q-181 27 -331 139t-236 280.5t-86 356.5q0 158 62 302t166 248t248 166t302 62q143 0 276 -47q93 -34 173 -98v118h268v-434
h-314z" />
    <glyph glyph-name="Egrave" unicode="&#xc8;" horiz-adv-x="1158" 
d="M234 1868l117 180l455 -272l-109 -162zM101 0v268h144v977h-144v268h957v-412h-288v144h-244v-356h410v-268h-410v-353h244v144h288v-412h-957z" />
    <glyph glyph-name="Eacute" unicode="&#xc9;" horiz-adv-x="1158" 
d="M517 1614l-105 160l459 274l111 -188zM101 0v268h144v977h-144v268h957v-412h-288v144h-244v-356h410v-268h-410v-353h244v144h288v-412h-957z" />
    <glyph glyph-name="Ecircumflex" unicode="&#xca;" horiz-adv-x="1158" 
d="M187 1649l301 282h219l297 -282h-297l-108 131l-111 -131h-301zM101 0v268h144v977h-144v268h957v-412h-288v144h-244v-356h410v-268h-410v-353h244v144h288v-412h-957z" />
    <glyph glyph-name="Edieresis" unicode="&#xcb;" horiz-adv-x="1158" 
d="M251 1649v272h272v-272h-272zM101 0v268h144v977h-144v268h957v-412h-288v144h-244v-356h410v-268h-410v-353h244v144h288v-412h-957zM681 1649v272h272v-272h-272z" />
    <glyph glyph-name="Igrave" unicode="&#xcc;" horiz-adv-x="786" 
d="M114 1868l117 180l455 -272l-109 -162zM101 0v268h144v977h-144v268h569v-268h-144v-977h144v-268h-569z" />
    <glyph glyph-name="Iacute" unicode="&#xcd;" horiz-adv-x="784" 
d="M219 1614l-105 160l459 274l111 -188zM101 0v268h144v977h-144v268h569v-268h-144v-977h144v-268h-569z" />
    <glyph glyph-name="Icircumflex" unicode="&#xce;" horiz-adv-x="769" 
d="M-10 1649l301 282h219l297 -282h-297l-108 131l-111 -131h-301zM114 0v268h144v977h-144v268h569v-268h-144v-977h144v-268h-569z" />
    <glyph glyph-name="Idieresis" unicode="&#xcf;" horiz-adv-x="731" 
d="M-10 1649v272h273v-272h-273zM57 0v268h144v977h-144v268h569v-268h-144v-977h144v-268h-569zM421 1649v272h272v-272h-272z" />
    <glyph glyph-name="Eth" unicode="&#xd0;" horiz-adv-x="1552" 
d="M555 268h62q246 0 370 68q100 55 158.5 168t58.5 250q0 149 -64 264.5t-177 171.5q-64 31 -143 43t-210 12h-55v-381h316v-219h-316v-377zM131 0v268h144v377h-197v219h197v381h-144v268h490q372 0 553 -118q151 -97 232 -263.5t81 -377.5q0 -235 -101 -413t-282 -263
q-92 -42 -201.5 -60t-275.5 -18h-496z" />
    <glyph glyph-name="Ntilde" unicode="&#xd1;" horiz-adv-x="1641" 
d="M595 1661l-111 164q54 54 100 75t111 21q34 0 56.5 -5t66.5 -24q56 -22 96 -22q76 0 137 69l111 -165q-50 -60 -94 -86.5t-98 -26.5q-41 0 -121 27q-66 24 -111 24q-40 0 -62.5 -8t-80.5 -43zM101 0v268h144v977h-144v268h464l627 -1101v833h-144v268h568v-268h-144
v-1245h-313l-633 1100v-832h144v-268h-569z" />
    <glyph glyph-name="Ograve" unicode="&#xd2;" horiz-adv-x="1628" 
d="M816 1270q-207 0 -353.5 -149.5t-146.5 -362.5q0 -107 40 -202t108 -163.5t163 -108.5t201 -40q215 0 357.5 145t142.5 365q0 223 -145.5 369.5t-366.5 146.5zM834 1540q158 0 302 -62t248 -166.5t165.5 -249.5t61.5 -304q0 -218 -103 -398t-282 -283.5t-396 -103.5
q-164 0 -311.5 61t-253.5 165.5t-168.5 250t-62.5 306.5q0 163 62 308.5t168 249.5t254.5 165t315.5 61zM538 1868l116 180l455 -272l-109 -162z" />
    <glyph glyph-name="Oacute" unicode="&#xd3;" horiz-adv-x="1628" 
d="M834 1540q158 0 302 -62t248 -166.5t165.5 -249.5t61.5 -304q0 -218 -103 -398t-282 -283.5t-396 -103.5q-164 0 -311.5 61t-253.5 165.5t-168.5 250t-62.5 306.5q0 163 62 308.5t168 249.5t254.5 165t315.5 61zM816 1270q-207 0 -353.5 -149.5t-146.5 -362.5
q0 -107 40 -202t108 -163.5t163 -108.5t201 -40q215 0 357.5 145t142.5 365q0 223 -145.5 369.5t-366.5 146.5zM642 1614l-104 160l458 274l111 -188z" />
    <glyph glyph-name="Ocircumflex" unicode="&#xd4;" horiz-adv-x="1628" 
d="M834 1540q158 0 302 -62t248 -166.5t165.5 -249.5t61.5 -304q0 -218 -103 -398t-282 -283.5t-396 -103.5q-164 0 -311.5 61t-253.5 165.5t-168.5 250t-62.5 306.5q0 163 62 308.5t168 249.5t254.5 165t315.5 61zM816 1270q-207 0 -353.5 -149.5t-146.5 -362.5
q0 -107 40 -202t108 -163.5t163 -108.5t201 -40q215 0 357.5 145t142.5 365q0 223 -145.5 369.5t-366.5 146.5zM415 1649l301 282h219l297 -282h-297l-109 131l-110 -131h-301z" />
    <glyph glyph-name="Otilde" unicode="&#xd5;" horiz-adv-x="1628" 
d="M834 1540q158 0 302 -62t248 -166.5t165.5 -249.5t61.5 -304q0 -218 -103 -398t-282 -283.5t-396 -103.5q-164 0 -311.5 61t-253.5 165.5t-168.5 250t-62.5 306.5q0 163 62 308.5t168 249.5t254.5 165t315.5 61zM816 1270q-207 0 -353.5 -149.5t-146.5 -362.5
q0 -107 40 -202t108 -163.5t163 -108.5t201 -40q215 0 357.5 145t142.5 365q0 223 -145.5 369.5t-366.5 146.5zM595 1661l-111 164q54 54 100 75t111 21q34 0 56.5 -5t66.5 -24q56 -22 96 -22q77 0 138 69l110 -165q-50 -60 -94 -86.5t-98 -26.5q-42 0 -121 27
q-66 24 -111 24q-40 0 -62.5 -8t-80.5 -43z" />
    <glyph glyph-name="Odieresis" unicode="&#xd6;" horiz-adv-x="1628" 
d="M834 1540q158 0 302 -62t248 -166.5t165.5 -249.5t61.5 -304q0 -218 -103 -398t-282 -283.5t-396 -103.5q-164 0 -311.5 61t-253.5 165.5t-168.5 250t-62.5 306.5q0 163 62 308.5t168 249.5t254.5 165t315.5 61zM816 1270q-207 0 -353.5 -149.5t-146.5 -362.5
q0 -107 40 -202t108 -163.5t163 -108.5t201 -40q215 0 357.5 145t142.5 365q0 223 -145.5 369.5t-366.5 146.5zM472 1649v272h272v-272h-272zM902 1649v272h272v-272h-272z" />
    <glyph glyph-name="multiply" unicode="&#xd7;" horiz-adv-x="1228" 
d="M782 750l348 -349l-167 -168l-349 349l-348 -349l-168 168l348 349l-348 348l168 168l348 -348l349 348l167 -168z" />
    <glyph glyph-name="Oslash" unicode="&#xd8;" horiz-adv-x="1682" 
d="M1203 1106l-557 -830q92 -32 186 -32q215 0 358.5 146t143.5 364q0 200 -131 352zM449 412l558 827q-91 31 -183 31q-140 0 -257 -67.5t-184 -185.5t-67 -259q0 -194 133 -346zM1484 1522l-125 -185q127 -115 192.5 -263t65.5 -316q0 -218 -103 -398t-282.5 -283.5
t-397.5 -103.5q-179 0 -344 74l-122 -180l-197 133l121 178q-123 110 -190.5 262t-67.5 318q0 160 62 305t167.5 249.5t252 166t308.5 61.5q169 0 338 -72l127 189z" />
    <glyph glyph-name="Ugrave" unicode="&#xd9;" horiz-adv-x="1396" 
d="M349 1868l117 180l454 -272l-108 -162zM205 1245h-144v268h569v-268h-144v-690q0 -85 7.5 -128.5t29.5 -80.5q29 -48 80 -75t112 -27q63 0 114.5 27t80.5 75q22 37 29.5 80.5t7.5 128.5v690h-144v268h568v-268h-144v-690q0 -136 -25.5 -228.5t-82.5 -166.5
q-69 -88 -176.5 -137.5t-227.5 -49.5q-136 0 -252.5 63.5t-181.5 172.5q-76 129 -76 346v690z" />
    <glyph glyph-name="Uacute" unicode="&#xda;" horiz-adv-x="1396" 
d="M619 1614l-104 160l458 274l111 -188zM205 1245h-144v268h569v-268h-144v-690q0 -85 7.5 -128.5t29.5 -80.5q29 -48 80 -75t112 -27q63 0 114.5 27t80.5 75q22 37 29.5 80.5t7.5 128.5v690h-144v268h568v-268h-144v-690q0 -136 -25.5 -228.5t-82.5 -166.5
q-69 -88 -176.5 -137.5t-227.5 -49.5q-136 0 -252.5 63.5t-181.5 172.5q-76 129 -76 346v690z" />
    <glyph glyph-name="Ucircumflex" unicode="&#xdb;" horiz-adv-x="1396" 
d="M308 1649l301 282h219l297 -282h-297l-109 131l-110 -131h-301zM205 1245h-144v268h569v-268h-144v-690q0 -85 7.5 -128.5t29.5 -80.5q29 -48 80 -75t112 -27q63 0 114.5 27t80.5 75q22 37 29.5 80.5t7.5 128.5v690h-144v268h568v-268h-144v-690q0 -136 -25.5 -228.5
t-82.5 -166.5q-69 -88 -176.5 -137.5t-227.5 -49.5q-136 0 -252.5 63.5t-181.5 172.5q-76 129 -76 346v690z" />
    <glyph glyph-name="Udieresis" unicode="&#xdc;" horiz-adv-x="1396" 
d="M365 1649v272h273v-272h-273zM205 1245h-144v268h569v-268h-144v-690q0 -85 7.5 -128.5t29.5 -80.5q29 -48 80 -75t112 -27q63 0 114.5 27t80.5 75q22 37 29.5 80.5t7.5 128.5v690h-144v268h568v-268h-144v-690q0 -136 -25.5 -228.5t-82.5 -166.5q-69 -88 -176.5 -137.5
t-227.5 -49.5q-136 0 -252.5 63.5t-181.5 172.5q-76 129 -76 346v690zM795 1649v272h273v-272h-273z" />
    <glyph glyph-name="Yacute" unicode="&#xdd;" horiz-adv-x="1291" 
d="M584 1614l-104 160l458 274l111 -188zM397 0v268h144v291l-358 686h-134v268h520v-268h-94l207 -428l205 428h-93v268h519v-268h-134l-357 -686v-291h144v-268h-569z" />
    <glyph glyph-name="Thorn" unicode="&#xde;" horiz-adv-x="1229" 
d="M526 573h82q124 0 192 21q60 17 94.5 64.5t34.5 113.5q0 72 -35 123t-96 68q-60 14 -178 14h-94v-404zM101 0v228h144v1017h-144v268h425v-268h94q154 0 243 -17.5t157 -60.5q92 -60 142 -161t50 -228q0 -136 -56.5 -245.5t-154.5 -165.5q-62 -34 -147 -48t-238 -14h-90
v-77h144v-228h-569z" />
    <glyph glyph-name="germandbls" unicode="&#xdf;" horiz-adv-x="1311" 
d="M450 387h168q14 -71 68 -117.5t124 -46.5q78 0 131.5 56.5t53.5 140.5q0 63 -31 113.5t-86 76.5q-45 21 -96.5 28t-163.5 7h-23v242h23q79 0 131.5 60t52.5 151q0 88 -47 140t-127 52q-178 0 -178 -260v-643zM178 268v729q0 193 65 320q56 104 158.5 163.5t228.5 59.5
q191 0 319 -121t128 -301q0 -101 -37.5 -169.5t-116.5 -112.5q74 -17 117.5 -36.5t87.5 -54.5q141 -114 141 -303q0 -206 -134 -337.5t-345 -131.5q-250 0 -363 189v-162h-393v268h144z" />
    <glyph glyph-name="agrave" unicode="&#xe0;" horiz-adv-x="1421" 
d="M315 1509l117 181l454 -273l-108 -162zM630 911q-142 0 -234.5 -100t-92.5 -254q0 -149 93.5 -241.5t242.5 -92.5q148 0 238.5 94t90.5 246q0 154 -94.5 251t-243.5 97zM1350 1135v-268h-124v-599h124v-268h-373v147q-82 -93 -169.5 -133.5t-207.5 -40.5
q-164 0 -294.5 75.5t-204 210.5t-73.5 304q0 171 74 307.5t206 213.5t298 77q123 0 212 -42.5t159 -135.5v152h373z" />
    <glyph glyph-name="aacute" unicode="&#xe1;" horiz-adv-x="1421" 
d="M571 1255l-104 160l458 275l111 -189zM630 911q-142 0 -234.5 -100t-92.5 -254q0 -149 93.5 -241.5t242.5 -92.5q148 0 238.5 94t90.5 246q0 154 -94.5 251t-243.5 97zM1350 1135v-268h-124v-599h124v-268h-373v147q-82 -93 -169.5 -133.5t-207.5 -40.5
q-164 0 -294.5 75.5t-204 210.5t-73.5 304q0 171 74 307.5t206 213.5t298 77q123 0 212 -42.5t159 -135.5v152h373z" />
    <glyph glyph-name="acircumflex" unicode="&#xe2;" horiz-adv-x="1421" 
d="M266 1290l301 283h219l297 -283h-297l-108 131l-111 -131h-301zM630 911q-142 0 -234.5 -100t-92.5 -254q0 -149 93.5 -241.5t242.5 -92.5q148 0 238.5 94t90.5 246q0 154 -94.5 251t-243.5 97zM1350 1135v-268h-124v-599h124v-268h-373v147q-82 -93 -169.5 -133.5
t-207.5 -40.5q-164 0 -294.5 75.5t-204 210.5t-73.5 304q0 171 74 307.5t206 213.5t298 77q123 0 212 -42.5t159 -135.5v152h373z" />
    <glyph glyph-name="atilde" unicode="&#xe3;" horiz-adv-x="1421" 
d="M446 1303l-110 163q54 54 100 75.5t110 21.5q34 0 56.5 -5t66.5 -24q59 -23 97 -23q76 0 137 70l110 -166q-50 -60 -94 -86t-98 -26q-44 0 -121 26q-69 25 -111 25q-40 0 -62.5 -8t-80.5 -43zM630 911q-142 0 -234.5 -100t-92.5 -254q0 -149 93.5 -241.5t242.5 -92.5
q148 0 238.5 94t90.5 246q0 154 -94.5 251t-243.5 97zM1350 1135v-268h-124v-599h124v-268h-373v147q-82 -93 -169.5 -133.5t-207.5 -40.5q-164 0 -294.5 75.5t-204 210.5t-73.5 304q0 171 74 307.5t206 213.5t298 77q123 0 212 -42.5t159 -135.5v152h373z" />
    <glyph glyph-name="adieresis" unicode="&#xe4;" horiz-adv-x="1421" 
d="M323 1290v273h273v-273h-273zM753 1290v273h273v-273h-273zM630 911q-142 0 -234.5 -100t-92.5 -254q0 -149 93.5 -241.5t242.5 -92.5q148 0 238.5 94t90.5 246q0 154 -94.5 251t-243.5 97zM1350 1135v-268h-124v-599h124v-268h-373v147q-82 -93 -169.5 -133.5
t-207.5 -40.5q-164 0 -294.5 75.5t-204 210.5t-73.5 304q0 171 74 307.5t206 213.5t298 77q123 0 212 -42.5t159 -135.5v152h373z" />
    <glyph glyph-name="aring" unicode="&#xe5;" horiz-adv-x="1421" 
d="M673 1534q-29 0 -50 -21.5t-21 -52.5t21.5 -52.5t52.5 -21.5t52 21.5t21 52.5t-22 52.5t-54 21.5zM630 911q-142 0 -234.5 -100t-92.5 -254q0 -149 93.5 -241.5t242.5 -92.5q148 0 238.5 94t90.5 246q0 154 -94.5 251t-243.5 97zM678 1671q86 0 147 -62t61 -149
q0 -88 -61 -149.5t-149 -61.5t-149.5 61.5t-61.5 149.5t62 149.5t151 61.5zM1350 1135v-268h-124v-599h124v-268h-373v147q-82 -93 -169.5 -133.5t-207.5 -40.5q-164 0 -294.5 75.5t-204 210.5t-73.5 304q0 171 74 307.5t206 213.5t298 77q123 0 212 -42.5t159 -135.5v152
h373z" />
    <glyph glyph-name="ae" unicode="&#xe6;" horiz-adv-x="2161" 
d="M624 911q-135 0 -228 -98.5t-93 -243.5q0 -149 93 -247.5t234 -98.5q138 0 230 98t92 244q0 149 -93.5 247.5t-234.5 98.5zM1210 690h623q-59 221 -308 221q-237 0 -315 -221zM1783 336h297q-51 -156 -200.5 -259.5t-323.5 -103.5q-114 0 -196 36t-150 114v-123h-250v123
q-69 -83 -145 -116.5t-193 -33.5q-255 0 -424.5 168.5t-169.5 421.5q0 167 77.5 304t212.5 215.5t300 78.5q110 0 191 -33t151 -106v113h250v-113q72 73 152.5 106t189.5 33q156 0 286.5 -75t205.5 -206.5t75 -289.5q0 -63 -18 -141h-877q35 -106 120 -166t200 -60
q77 0 133.5 26.5t105.5 86.5z" />
    <glyph glyph-name="ccedilla" unicode="&#xe7;" horiz-adv-x="1263" 
d="M620 -27l-39 -92q34 15 64 15q77 0 128.5 -58.5t51.5 -146.5q0 -94 -53 -149.5t-142 -55.5q-78 0 -135 49t-67 125h123q24 -61 77 -61q34 0 56 25t22 63q0 40 -22 65t-56 25q-41 0 -77 -49l-107 53l86 201q-68 11 -131 38q-113 47 -194 126t-129 189t-48 232
q0 164 79 300.5t216.5 215t302.5 78.5q95 -6 173.5 -45t130.5 -101v120h268v-379h-307q-80 155 -265 155q-142 0 -232.5 -95.5t-90.5 -246.5q0 -149 94.5 -247.5t235.5 -98.5q84 0 145.5 36t112.5 114h307q-71 -191 -217.5 -295.5t-345.5 -104.5h-15z" />
    <glyph glyph-name="egrave" unicode="&#xe8;" horiz-adv-x="1254" 
d="M315 686h629q-26 109 -107 167t-207 58q-122 0 -202.5 -57.5t-112.5 -167.5zM1202 446h-879q25 -103 109 -163t205 -60q84 0 140 25.5t109 87.5h297q-24 -77 -90 -158q-176 -205 -450 -205q-128 0 -242 46t-195.5 124.5t-129.5 188t-48 231.5q0 164 79.5 301.5t217 217
t301.5 79.5q167 0 301 -78.5t209.5 -218t75.5 -313.5q0 -56 -10 -105zM260 1509l117 181l454 -273l-108 -162z" />
    <glyph glyph-name="eacute" unicode="&#xe9;" horiz-adv-x="1254" 
d="M315 686h629q-26 109 -107 167t-207 58q-122 0 -202.5 -57.5t-112.5 -167.5zM1202 446h-879q25 -103 109 -163t205 -60q84 0 140 25.5t109 87.5h297q-24 -77 -90 -158q-176 -205 -450 -205q-128 0 -242 46t-195.5 124.5t-129.5 188t-48 231.5q0 164 79.5 301.5t217 217
t301.5 79.5q167 0 301 -78.5t209.5 -218t75.5 -313.5q0 -56 -10 -105zM536 1255l-104 160l459 275l110 -189z" />
    <glyph glyph-name="ecircumflex" unicode="&#xea;" horiz-adv-x="1254" 
d="M315 686h629q-26 109 -107 167t-207 58q-122 0 -202.5 -57.5t-112.5 -167.5zM1202 446h-879q25 -103 109 -163t205 -60q84 0 140 25.5t109 87.5h297q-24 -77 -90 -158q-176 -205 -450 -205q-128 0 -242 46t-195.5 124.5t-129.5 188t-48 231.5q0 164 79.5 301.5t217 217
t301.5 79.5q167 0 301 -78.5t209.5 -218t75.5 -313.5q0 -56 -10 -105zM225 1290l301 283h219l297 -283h-297l-108 131l-111 -131h-301z" />
    <glyph glyph-name="edieresis" unicode="&#xeb;" horiz-adv-x="1246" 
d="M307 686h629q-26 109 -107 167t-207 58q-122 0 -202.5 -57.5t-112.5 -167.5zM1194 446h-879q25 -103 109 -163t205 -60q84 0 140 25.5t109 87.5h297q-24 -77 -90 -158q-176 -205 -450 -205q-128 0 -242 46t-195.5 124.5t-129.5 188t-48 231.5q0 164 79.5 301.5t217 217
t301.5 79.5q167 0 301 -78.5t209.5 -218t75.5 -313.5q0 -56 -10 -105zM706 1290v273h273v-273h-273zM276 1290v273h273v-273h-273z" />
    <glyph glyph-name="igrave" unicode="&#xec;" horiz-adv-x="700" 
d="M90 1509l117 181l455 -273l-109 -162zM110 0v268h124v599h-124v268h396v-867h124v-268h-520z" />
    <glyph glyph-name="iacute" unicode="&#xed;" horiz-adv-x="693" 
d="M190 1255l-105 160l459 275l111 -189zM105 0v268h124v599h-124v268h396v-867h124v-268h-520z" />
    <glyph glyph-name="icircumflex" unicode="&#xee;" horiz-adv-x="762" 
d="M-17 1290l301 283h219l297 -283h-297l-108 131l-111 -131h-301zM132 0v268h124v599h-124v268h396v-867h124v-268h-520z" />
    <glyph glyph-name="idieresis" unicode="&#xef;" horiz-adv-x="713" 
d="M27 1290v273h272v-273h-272zM118 0v268h124v599h-124v268h396v-867h124v-268h-520zM457 1290v273h272v-273h-272z" />
    <glyph glyph-name="eth" unicode="&#xf0;" horiz-adv-x="1277" 
d="M626 911q-132 0 -227.5 -101.5t-95.5 -242.5q0 -142 96 -243t231 -101q136 0 233 100.5t97 241.5q0 146 -97 246t-237 100zM313 1477l211 71q4 -3 11 -7t12.5 -7.5t9.5 -7.5l61 -47q14 -6 39 -27l178 82l84 -100l-160 -72q110 -95 162 -146t103 -114q211 -260 211 -520
q0 -168 -79.5 -308t-218 -220.5t-304.5 -80.5q-164 0 -303.5 80t-220.5 217.5t-81 298.5q0 158 83.5 298t219.5 210q51 26 121.5 44t122.5 18q49 0 139 -19q-12 11 -32.5 32.5t-24.5 25.5q-57 57 -100 94l-178 -82l-82 94l159 76q-87 73 -143 117z" />
    <glyph glyph-name="ntilde" unicode="&#xf1;" horiz-adv-x="1335" 
d="M470 1303l-111 163q54 54 100.5 75.5t110.5 21.5q34 0 56.5 -5t66.5 -24q59 -23 96 -23q76 0 137 70l111 -166q-50 -60 -94.5 -86t-98.5 -26q-43 0 -120 26q-69 25 -111 25q-40 0 -62.5 -8t-80.5 -43zM90 0v268h124v599h-124v268h375v-109q75 73 148 104t172 31
q248 0 362 -174q41 -66 57.5 -149t16.5 -230v-340h122v-268h-394v555q0 220 -58 289q-55 67 -159 67q-140 0 -203 -110q-25 -39 -34 -97t-9 -169v-267h124v-268h-520z" />
    <glyph glyph-name="ograve" unicode="&#xf2;" horiz-adv-x="1277" 
d="M637 1161q162 0 300 -80t218 -217.5t80 -298.5q0 -160 -80.5 -296.5t-219.5 -216t-302 -79.5q-164 0 -303.5 79.5t-220.5 216t-81 296.5q0 122 47.5 232.5t129 190t194.5 126.5t238 47zM626 911q-132 0 -227.5 -101.5t-95.5 -242.5q0 -142 96 -243t231 -101
q136 0 233 100.5t97 241.5q0 146 -97 246t-237 100zM278 1509l117 181l455 -273l-109 -162z" />
    <glyph glyph-name="oacute" unicode="&#xf3;" horiz-adv-x="1277" 
d="M637 1161q162 0 300 -80t218 -217.5t80 -298.5q0 -160 -80.5 -296.5t-219.5 -216t-302 -79.5q-164 0 -303.5 79.5t-220.5 216t-81 296.5q0 122 47.5 232.5t129 190t194.5 126.5t238 47zM626 911q-132 0 -227.5 -101.5t-95.5 -242.5q0 -142 96 -243t231 -101
q136 0 233 100.5t97 241.5q0 146 -97 246t-237 100zM520 1255l-105 160l459 275l111 -189z" />
    <glyph glyph-name="ocircumflex" unicode="&#xf4;" horiz-adv-x="1277" 
d="M637 1161q162 0 300 -80t218 -217.5t80 -298.5q0 -160 -80.5 -296.5t-219.5 -216t-302 -79.5q-164 0 -303.5 79.5t-220.5 216t-81 296.5q0 122 47.5 232.5t129 190t194.5 126.5t238 47zM626 911q-132 0 -227.5 -101.5t-95.5 -242.5q0 -142 96 -243t231 -101
q136 0 233 100.5t97 241.5q0 146 -97 246t-237 100zM223 1290l301 283h219l297 -283h-297l-108 131l-111 -131h-301z" />
    <glyph glyph-name="otilde" unicode="&#xf5;" horiz-adv-x="1277" 
d="M637 1161q162 0 300 -80t218 -217.5t80 -298.5q0 -160 -80.5 -296.5t-219.5 -216t-302 -79.5q-164 0 -303.5 79.5t-220.5 216t-81 296.5q0 122 47.5 232.5t129 190t194.5 126.5t238 47zM626 911q-132 0 -227.5 -101.5t-95.5 -242.5q0 -142 96 -243t231 -101
q136 0 233 100.5t97 241.5q0 146 -97 246t-237 100zM409 1303l-110 163q54 54 100.5 75.5t110.5 21.5q34 0 56.5 -5t66.5 -24q59 -23 96 -23q76 0 137 70l111 -166q-50 -60 -94.5 -86t-98.5 -26q-44 0 -121 26q-69 25 -110 25q-40 0 -63 -8t-81 -43z" />
    <glyph glyph-name="odieresis" unicode="&#xf6;" horiz-adv-x="1269" 
d="M629 1161q162 0 300 -80t218 -217.5t80 -298.5q0 -160 -80.5 -296.5t-219.5 -216t-302 -79.5q-164 0 -303.5 79.5t-220.5 216t-81 296.5q0 122 47.5 232.5t129 190t194.5 126.5t238 47zM618 911q-132 0 -227.5 -101.5t-95.5 -242.5q0 -142 96 -243t231 -101
q136 0 233 100.5t97 241.5q0 146 -97 246t-237 100zM272 1290v273h273v-273h-273zM702 1290v273h273v-273h-273z" />
    <glyph glyph-name="divide" unicode="&#xf7;" horiz-adv-x="1228" 
d="M752 1102h-277v268h277v-268zM1130 881v-242h-1032v242h1032zM752 150h-277v268h277v-268z" />
    <glyph glyph-name="oslash" unicode="&#xf8;" horiz-adv-x="1279" 
d="M88 -20l116 172q-85 82 -130.5 189.5t-45.5 225.5q0 161 81 298t221 216.5t305 79.5q113 0 223 -43l106 158l176 -119l-102 -149q199 -184 199 -441q0 -121 -47.5 -231t-128.5 -189.5t-192.5 -126.5t-233.5 -47q-133 0 -258 58l-115 -168zM358 379l352 522q-39 10 -77 10
q-136 0 -233 -100.5t-97 -241.5q0 -99 55 -190zM889 784l-367 -540q59 -21 111 -21q136 0 232.5 100.5t96.5 241.5q0 121 -73 219z" />
    <glyph glyph-name="ugrave" unicode="&#xf9;" horiz-adv-x="1292" 
d="M254 1509l116 181l455 -273l-108 -162zM904 867h-124v268h396v-867h124v-268h-376v109q-78 -75 -150.5 -105.5t-174.5 -30.5q-115 0 -206 46.5t-147 132.5q-44 69 -62 152t-18 222v341h-124v268h397v-555q0 -118 13 -184.5t44 -104.5q59 -68 158 -68q71 0 126.5 28.5
t84.5 80.5q22 38 30.5 98.5t8.5 169.5v267z" />
    <glyph glyph-name="uacute" unicode="&#xfa;" horiz-adv-x="1292" 
d="M524 1255l-104 160l458 275l111 -189zM904 867h-124v268h396v-867h124v-268h-376v109q-78 -75 -150.5 -105.5t-174.5 -30.5q-115 0 -206 46.5t-147 132.5q-44 69 -62 152t-18 222v341h-124v268h397v-555q0 -118 13 -184.5t44 -104.5q59 -68 158 -68q71 0 126.5 28.5
t84.5 80.5q22 38 30.5 98.5t8.5 169.5v267z" />
    <glyph glyph-name="ucircumflex" unicode="&#xfb;" horiz-adv-x="1291" 
d="M212 1290l301 283h219l297 -283h-297l-109 131l-110 -131h-301zM903 867h-124v268h396v-867h124v-268h-376v109q-78 -75 -150.5 -105.5t-174.5 -30.5q-115 0 -206 46.5t-147 132.5q-44 69 -62 152t-18 222v341h-124v268h397v-555q0 -118 13 -184.5t44 -104.5
q59 -68 158 -68q71 0 126.5 28.5t84.5 80.5q22 38 30.5 98.5t8.5 169.5v267z" />
    <glyph glyph-name="udieresis" unicode="&#xfc;" horiz-adv-x="1291" 
d="M269 1290v273h272v-273h-272zM903 867h-124v268h396v-867h124v-268h-376v109q-78 -75 -150.5 -105.5t-174.5 -30.5q-115 0 -206 46.5t-147 132.5q-44 69 -62 152t-18 222v341h-124v268h397v-555q0 -118 13 -184.5t44 -104.5q59 -68 158 -68q71 0 126.5 28.5t84.5 80.5
q22 38 30.5 98.5t8.5 169.5v267zM699 1290v273h273v-273h-273z" />
    <glyph glyph-name="yacute" unicode="&#xfd;" horiz-adv-x="1188" 
d="M432 1255l-105 160l459 275l111 -189zM227 -379v268h118l95 217l-308 761h-108v268h455v-268h-52l160 -468l175 468h-44v268h457v-268h-116l-423 -978h114v-268h-523z" />
    <glyph glyph-name="thorn" unicode="&#xfe;" horiz-adv-x="1408" 
d="M760 911q-138 0 -231.5 -99t-93.5 -245q0 -148 94.5 -246t236.5 -98q138 0 232 99t94 245q0 148 -94.5 246t-237.5 98zM55 -379v268h124v1356h-124v268h396v-499q132 147 352 147q162 0 290.5 -76t200.5 -211.5t72 -306.5t-72 -306.5t-200.5 -211.5t-290.5 -76
q-219 0 -352 148v-232h124v-268h-520z" />
    <glyph glyph-name="ydieresis" unicode="&#xff;" horiz-adv-x="1185" 
d="M246 1290v273h273v-273h-273zM224 -379v268h118l95 217l-308 761h-108v268h455v-268h-52l160 -468l175 468h-44v268h457v-268h-116l-423 -978h114v-268h-523zM677 1290v273h272v-273h-272z" />
    <glyph glyph-name="OE" unicode="&#x152;" horiz-adv-x="2112" 
d="M794 1270q-201 0 -339.5 -150.5t-138.5 -369.5q0 -216 141 -361t351 -145t346.5 144t136.5 366q0 227 -138.5 371.5t-358.5 144.5zM2012 1101h-288v144h-158v-356h324v-268h-324v-353h158v144h288v-412h-731v166q-85 -94 -205.5 -143.5t-263.5 -49.5q-164 0 -308.5 60
t-247.5 163.5t-162.5 248.5t-59.5 309q0 222 99.5 402t275.5 282t393 102q309 0 479 -194v167h731v-412z" />
    <glyph glyph-name="oe" unicode="&#x153;" horiz-adv-x="2155" 
d="M626 911q-135 0 -229 -99.5t-94 -242.5q0 -148 96.5 -247t241.5 -99q137 0 229 98t92 244q0 150 -95 248t-241 98zM1212 686h619q-64 225 -308 225q-234 0 -311 -225zM1786 334h290q-60 -164 -206 -262.5t-330 -98.5q-145 0 -264 60t-197 172q-83 -119 -192.5 -175.5
t-256.5 -56.5q-127 0 -239 45.5t-191.5 124t-125.5 188.5t-46 236q0 122 46.5 232.5t125.5 189.5t189.5 125.5t232.5 46.5q97 0 186 -28.5t156 -81.5q47 -35 115 -117q98 120 204 173.5t244 53.5q194 0 345 -102q241 -160 241 -477q0 -67 -10 -136h-879q34 -103 118 -163
t196 -60q72 0 140 30.5t108 80.5z" />
    <glyph glyph-name="Scaron" unicode="&#x160;" horiz-adv-x="1137" 
d="M165 1931h301l111 -131l108 131h297l-297 -282h-219zM753 1425v88h268v-403h-291q-6 76 -48 118t-112 42q-69 0 -112 -43t-43 -111q0 -85 88 -139q19 -13 164 -66q113 -43 162.5 -69.5t93.5 -67.5q135 -123 135 -315q0 -205 -139.5 -345.5t-343.5 -140.5q-124 0 -230 130
v-103h-268v432h293q18 -188 205 -188q91 0 147.5 51t56.5 133q0 101 -75 158q-34 25 -70.5 41t-185.5 71q-153 57 -234.5 163t-81.5 249q0 180 128 305t246 125q153 2 247 -115z" />
    <glyph glyph-name="scaron" unicode="&#x161;" horiz-adv-x="978" 
d="M90 1573h301l111 -131l108 131h297l-297 -283h-219zM652 1051v84h218v-314h-266q-18 90 -106 90q-44 0 -74.5 -27.5t-30.5 -68.5q0 -52 53 -76q29 -12 140 -47q172 -53 243.5 -128t71.5 -204q0 -163 -118 -275t-288 -112q-137 18 -197 124v-97h-218v360h274
q20 -72 56 -104.5t96 -32.5q54 0 88.5 31.5t34.5 79.5q0 56 -52 88q-22 13 -43 22t-98 35q-170 57 -242.5 134t-72.5 202q0 146 108.5 246t214.5 100q135 0 208 -110z" />
    <glyph glyph-name="Ydieresis" unicode="&#x178;" horiz-adv-x="1291" 
d="M330 1649v272h272v-272h-272zM397 0v268h144v291l-358 686h-134v268h520v-268h-94l207 -428l205 428h-93v268h519v-268h-134l-357 -686v-291h144v-268h-569zM760 1649v272h273v-272h-273z" />
    <glyph glyph-name="Zcaron" unicode="&#x17d;" horiz-adv-x="1148" 
d="M167 1931h301l111 -131l108 131h297l-297 -282h-219zM420 1245v-144h-288v412h877v-251l-570 -994h321v144h288v-412h-947v238l574 1007h-255z" />
    <glyph glyph-name="zcaron" unicode="&#x17e;" horiz-adv-x="996" 
d="M91 1573h301l111 -131l108 131h297l-297 -283h-219zM380 891v-124h-268v368h768v-244l-500 -647h271v124h268v-368h-865v244l500 647h-174z" />
    <glyph glyph-name="florin" unicode="&#x192;" horiz-adv-x="850" 
d="M674 1198h189l-39 -235h-191l-127 -746q-31 -180 -63.5 -262t-97.5 -141q-131 -119 -330 -119q-61 0 -121 14l41 238q39 -8 68 -8q131 0 184 90q37 58 66 233l122 701h-192l39 235h192l11 53q26 123 48.5 177.5t69.5 109.5q62 71 149.5 109.5t188.5 38.5q20 0 60 -7
l-41 -239h-21q-124 0 -172 -115q-18 -45 -33 -127z" />
    <glyph glyph-name="uni0237" unicode="&#x237;" horiz-adv-x="577" 
d="M456 1135v-1059q0 -127 -29 -212.5t-92 -144.5q-106 -98 -264 -98v264q41 7 61 15t33 31t15.5 54.5t2.5 96.5v785h-124v268h397z" />
    <glyph glyph-name="circumflex" unicode="&#x2c6;" horiz-adv-x="1079" 
d="M131 1290l301 283h219l297 -283h-297l-108 131l-111 -131h-301z" />
    <glyph glyph-name="caron" unicode="&#x2c7;" horiz-adv-x="1079" 
d="M131 1573h301l111 -131l108 131h297l-297 -283h-219z" />
    <glyph glyph-name="breve" unicode="&#x2d8;" horiz-adv-x="937" 
d="M131 1575h201q37 -88 139 -88q112 0 127 88h209q-4 -129 -96.5 -207t-239.5 -78q-152 0 -241.5 75t-98.5 210z" />
    <glyph glyph-name="dotaccent" unicode="&#x2d9;" horiz-adv-x="534" 
d="M131 1290v273h272v-273h-272z" />
    <glyph glyph-name="ring" unicode="&#x2da;" horiz-adv-x="684" 
d="M340 1534q-29 0 -50.5 -21.5t-21.5 -52.5t21.5 -52.5t52.5 -21.5t52.5 21.5t21.5 52.5t-22 52.5t-54 21.5zM344 1671q86 0 147.5 -62.5t61.5 -148.5q0 -88 -61.5 -149.5t-149.5 -61.5t-149.5 61.5t-61.5 149.5t62 149.5t151 61.5z" />
    <glyph glyph-name="ogonek" unicode="&#x2db;" horiz-adv-x="634" 
d="M307 0h144q-78 -56 -106 -90.5t-28 -75.5q0 -37 29.5 -61.5t73.5 -24.5q33 0 84 21v-158q-68 -29 -135 -29q-106 0 -172 56t-66 147q0 132 176 215z" />
    <glyph glyph-name="tilde" unicode="&#x2dc;" horiz-adv-x="940" 
d="M242 1303l-111 163q54 54 100.5 75.5t110.5 21.5q34 0 56.5 -5t66.5 -24q59 -23 96 -23q76 0 137 70l111 -166q-50 -60 -94.5 -86t-98.5 -26q-43 0 -120 26q-69 25 -111 25q-40 0 -62.5 -8t-80.5 -43z" />
    <glyph glyph-name="hungarumlaut" unicode="&#x2dd;" horiz-adv-x="1398" 
d="M131 1397l430 293l127 -164l-455 -271zM711 1397l432 293l125 -164l-453 -271z" />
    <glyph glyph-name="gravecomb" unicode="&#x300;" 
d="M-1014 1509l117 181l454 -273l-108 -162z" />
    <glyph glyph-name="acutecomb" unicode="&#x301;" 
d="M-772 1255l-105 160l459 275l110 -189z" />
    <glyph glyph-name="uni0302" unicode="&#x302;" 
d="M-1069 1290l301 283h219l297 -283h-297l-108 131l-111 -131h-301z" />
    <glyph glyph-name="tildecomb" unicode="&#x303;" 
d="M-882 1303l-111 163q54 54 100.5 75.5t110.5 21.5q34 0 56.5 -5t66.5 -24q59 -23 96 -23q76 0 137 70l111 -166q-50 -60 -94.5 -86t-98.5 -26q-43 0 -120 26q-69 25 -111 25q-40 0 -62.5 -8t-80.5 -43z" />
    <glyph glyph-name="uni0304" unicode="&#x304;" 
d="M-944 1327v205h567v-205h-567z" />
    <glyph glyph-name="uni0306" unicode="&#x306;" 
d="M-999 1575h201q37 -88 139 -88q112 0 127 88h209q-4 -129 -96.5 -207t-239.5 -78q-152 0 -241.5 75t-98.5 210z" />
    <glyph glyph-name="uni0307" unicode="&#x307;" 
d="M-797 1290v273h272v-273h-272z" />
    <glyph glyph-name="uni0308" unicode="&#x308;" 
d="M-1012 1290v273h272v-273h-272zM-582 1290v273h273v-273h-273z" />
    <glyph glyph-name="uni030A" unicode="&#x30a;" 
d="M-664 1534q-29 0 -50.5 -21.5t-21.5 -52.5t21.5 -52.5t52.5 -21.5t52.5 21.5t21.5 52.5t-22 52.5t-54 21.5zM-660 1671q86 0 147.5 -62.5t61.5 -148.5q0 -88 -61.5 -149.5t-149.5 -61.5t-149.5 61.5t-61.5 149.5t62 149.5t151 61.5z" />
    <glyph glyph-name="uni030B" unicode="&#x30b;" 
d="M-1194 1397l430 293l127 -164l-455 -271zM-614 1397l432 293l125 -164l-453 -271z" />
    <glyph glyph-name="uni030C" unicode="&#x30c;" 
d="M-1069 1573h301l111 -131l108 131h297l-297 -283h-219z" />
    <glyph glyph-name="uni0400" unicode="&#x400;" horiz-adv-x="1158" 
d="M234 1868l117 180l455 -272l-109 -162zM101 0v268h144v977h-144v268h957v-412h-288v144h-244v-356h410v-268h-410v-353h244v144h288v-412h-957z" />
    <glyph glyph-name="uni0401" unicode="&#x401;" horiz-adv-x="1158" 
d="M251 1649v272h272v-272h-272zM101 0v268h144v977h-144v268h957v-412h-288v144h-244v-356h410v-268h-410v-353h244v144h288v-412h-957zM681 1649v272h272v-272h-272z" />
    <glyph glyph-name="uni0402" unicode="&#x402;" horiz-adv-x="1625" 
d="M1219 1513v-412h-288v144h-142v-323h100q173 0 268 -13t164 -47q110 -54 173 -162t63 -241q0 -116 -44 -210t-119.5 -153.5t-173.5 -91t-208 -31.5v269q101 0 181.5 60.5t80.5 162.5q0 59 -28 98t-82.5 58t-113.5 25.5t-142 6.5h-119v-653h-425v268h144v977h-143v-144
h-288v412h1142z" />
    <glyph glyph-name="uni0403" unicode="&#x403;" horiz-adv-x="1133" 
d="M432 1613l-105 160l459 275l110 -189zM100 0v268h144v977h-144v268h941v-412h-288v144h-228v-977h144v-268h-569z" />
    <glyph glyph-name="uni0404" unicode="&#x404;" horiz-adv-x="1642" 
d="M1255 1079q-77 100 -171 145.5t-226 45.5q-237 0 -377 -166q-75 -88 -106 -207h743v-268h-745q43 -168 179.5 -276.5t311.5 -108.5q109 0 195.5 41t179.5 137h330q-89 -207 -277.5 -328t-421.5 -121q-109 0 -212.5 28t-190.5 79t-160.5 123.5t-124.5 159t-79.5 189
t-28.5 210.5q0 158 62 302t166 248t248 166t302 62q143 0 276 -47q93 -34 173 -108v128h268v-434h-314z" />
    <glyph glyph-name="uni0405" unicode="&#x405;" horiz-adv-x="1137" 
d="M753 1425v88h268v-403h-291q-6 76 -48 118t-112 42q-69 0 -112 -43t-43 -111q0 -85 88 -139q19 -13 164 -66q113 -43 162.5 -69.5t93.5 -67.5q135 -123 135 -315q0 -205 -139.5 -345.5t-343.5 -140.5q-124 0 -230 130v-103h-268v432h293q18 -188 205 -188q91 0 147.5 51
t56.5 133q0 101 -75 158q-34 25 -70.5 41t-185.5 71q-153 57 -234.5 163t-81.5 249q0 180 128 305t246 125q153 2 247 -115z" />
    <glyph glyph-name="uni0406" unicode="&#x406;" horiz-adv-x="770" 
d="M101 0v268h144v977h-144v268h569v-268h-144v-977h144v-268h-569z" />
    <glyph glyph-name="uni0407" unicode="&#x407;" horiz-adv-x="731" 
d="M-10 1649v272h273v-272h-273zM57 0v268h144v977h-144v268h569v-268h-144v-977h144v-268h-569zM421 1649v272h272v-272h-272z" />
    <glyph glyph-name="uni0408" unicode="&#x408;" horiz-adv-x="972" 
d="M523 1245h-144v268h568v-268h-144v-811q0 -214 -109.5 -337.5t-299.5 -123.5q-98 0 -184.5 38t-145.5 106q-43 50 -63 102t-27 139h280q27 -114 134 -114q135 0 135 198v803z" />
    <glyph glyph-name="uni0409" unicode="&#x409;" horiz-adv-x="2169" 
d="M1325 653v-385h113q136 0 215 15q74 17 116 65t42 117q0 61 -42 106t-114 62q-79 20 -231 20h-99zM1045 1051l-467 -783h144v-268h-622v268h151l623 977h-143v268h594v-591h101q173 0 268 -13t164 -47q110 -54 172.5 -162t62.5 -241q0 -126 -56 -225t-159 -158
q-75 -43 -174.5 -59.5t-273.5 -16.5h-529v268h144v783z" />
    <glyph glyph-name="uni040A" unicode="&#x40a;" horiz-adv-x="2176" 
d="M1332 653v-385h113q136 0 215 15q74 17 115.5 65t41.5 117q0 61 -41.5 106t-113.5 62q-79 20 -232 20h-98zM100 0v268h144v977h-144v268h569v-268h-144v-323h526v323h-144v268h569v-268h-144v-323h100q173 0 268 -13t164 -47q110 -54 173 -162t63 -241q0 -126 -56 -225
t-159 -158q-75 -42 -175 -59t-274 -17h-529v268h144v385h-526v-385h144v-268h-569z" />
    <glyph glyph-name="uni040B" unicode="&#x40b;" horiz-adv-x="1789" 
d="M388 1245v-144h-288v412h1142v-412h-288v144h-142v-327q63 8 258 8q132 0 239.5 -53t173.5 -160.5t66 -253.5v-191h144v-268h-570v268h144v191q0 111 -69.5 154.5t-211.5 43.5q-117 0 -174 -8v-649h-425v268h144v977h-143z" />
    <glyph glyph-name="uni040C" unicode="&#x40c;" horiz-adv-x="1480" 
d="M650 1613l-105 160l459 275l110 -189zM908 1245h-50v268h527v-268h-144l-428 -475l436 -502h144v-268h-530v268h49l-387 448v-448h144v-268h-569v268h144v977h-144v268h569v-268h-144v-435z" />
    <glyph glyph-name="uni040D" unicode="&#x40d;" horiz-adv-x="1712" 
d="M502 1867l117 181l454 -273l-108 -162zM244 1245h-144v268h567v-268h-144v-780l657 1048h429v-268h-144v-977h144v-268h-567v268h144v781l-657 -1049h-429v268h144v977z" />
    <glyph glyph-name="uni040E" unicode="&#x40e;" horiz-adv-x="1284" 
d="M308 1919h236q0 -83 31 -119.5t96 -36.5t96 36.5t31 119.5h235q-24 -142 -121.5 -215.5t-240.5 -73.5t-241 73.5t-122 215.5zM238 1245h-132v268h507v-268h-80l195 -502l199 502h-78v268h508v-268h-132l-523 -1245h-367v268h205l51 129z" />
    <glyph glyph-name="uni040F" unicode="&#x40f;" horiz-adv-x="1544" 
d="M100 0v268h144v977h-144v268h569v-268h-144v-977h512v977h-144v268h569v-268h-144v-977h144v-268h-534l-53 -297h-188l-53 297h-534z" />
    <glyph glyph-name="uni0410" unicode="&#x410;" horiz-adv-x="1504" 
d="M591 659h324l-162 459zM-21 0v268h144l408 977h-145v268h477l523 -1246v1h144v-268h-596v268h144l-51 123h-538l-53 -123h144v-268h-601z" />
    <glyph glyph-name="uni0411" unicode="&#x411;" horiz-adv-x="1318" 
d="M524 678v-410h102q114 0 197 17q67 17 106 68.5t39 123.5q0 65 -38.5 113t-104.5 65q-84 23 -211 23h-90zM99 0v268h144v977h-144v268h1056v-412h-288v144h-343v-299h94q166 0 255.5 -13t154.5 -48q104 -55 163.5 -166.5t59.5 -247.5q0 -129 -53 -231t-150 -162
q-70 -44 -165 -61t-261 -17h-523z" />
    <glyph glyph-name="uni0412" unicode="&#x412;" horiz-adv-x="1270" 
d="M526 268h139q147 0 214 45.5t67 145.5t-70.5 148t-216.5 48h-133v-387zM526 930h90q128 0 185 36.5t57 118.5q0 154 -217 154h-115v-309zM101 0v268h144v977h-144v268h456q173 0 260.5 -16.5t156.5 -62.5q78 -53 121 -137.5t43 -186.5q0 -107 -38.5 -172.5t-129.5 -112.5
q76 -31 116.5 -59t72.5 -72q69 -94 69 -243q0 -120 -54 -218t-152 -155q-135 -78 -373 -78h-548z" />
    <glyph glyph-name="uni0413" unicode="&#x413;" horiz-adv-x="1133" 
d="M100 0v268h144v977h-144v268h941v-412h-288v144h-228v-977h144v-268h-569z" />
    <glyph glyph-name="uni0414" unicode="&#x414;" horiz-adv-x="1720" 
d="M520 268h680l-340 830zM973 1513l518 -1245h201v-565h-197l-57 297h-1155l-58 -297h-196v565h200l407 977h-143v268h480z" />
    <glyph glyph-name="uni0415" unicode="&#x415;" horiz-adv-x="1158" 
d="M101 0v268h144v977h-144v268h957v-412h-288v144h-244v-356h410v-268h-410v-353h244v144h288v-412h-957z" />
    <glyph glyph-name="uni0416" unicode="&#x416;" horiz-adv-x="2101" 
d="M1191 810l333 435h-50v268h527v-268h-144l-378 -475l386 -502h144v-268h-530v268h49l-337 448v-448h144v-268h-569v268h144v448l-337 -448h49v-268h-530v268h144l386 502l-378 475h-144v268h527v-268h-50l333 -435v435h-144v268h569v-268h-144v-435z" />
    <glyph glyph-name="uni0417" unicode="&#x417;" horiz-adv-x="1134" 
d="M377 1424q84 116 224 116q149 0 281 -129.5t132 -314.5q0 -63 -21 -120t-65.5 -103t-106.5 -66q102 -36 171 -138t69 -208q0 -132 -67 -244.5t-182 -178t-251 -65.5t-251 65.5t-182 178t-67 244.5h283q0 -91 63 -154t154 -63t154 63t63 154q0 118 -77.5 166.5
t-241.5 48.5v246q282 0 282 174q0 72 -52.5 124t-127.5 52t-127.5 -52t-52.5 -123h-4v-1h-268v417h268v-89z" />
    <glyph glyph-name="uni0418" unicode="&#x418;" horiz-adv-x="1708" 
d="M244 1245h-144v268h567v-268h-144v-780l657 1048h429v-268h-144v-977h144v-268h-567v268h144v781l-657 -1049h-429v268h144v977z" />
    <glyph glyph-name="uni0419" unicode="&#x419;" horiz-adv-x="1710" 
d="M492 1919h236q0 -83 31 -119.5t96 -36.5t96 36.5t31 119.5h235q-24 -142 -121.5 -215.5t-240.5 -73.5t-241 73.5t-122 215.5zM244 1245h-144v268h567v-268h-144v-780l657 1048h429v-268h-144v-977h144v-268h-567v268h144v781l-657 -1049h-429v268h144v977z" />
    <glyph glyph-name="uni041A" unicode="&#x41a;" horiz-adv-x="1446" 
d="M909 1245h-50v268h527v-268h-144l-428 -475l436 -502h144v-268h-530v268h49l-387 448v-448h144v-268h-569v268h144v977h-144v268h569v-268h-144v-435z" />
    <glyph glyph-name="uni041B" unicode="&#x41b;" horiz-adv-x="1515" 
d="M-18 0v268h144l409 977h-144v268h477l521 -1245h144v-268h-583v268h143l-335 860l-336 -860h143v-268h-583z" />
    <glyph glyph-name="uni041C" unicode="&#x41c;" horiz-adv-x="2070" 
d="M101 0v268h144v977h-144v268h529l408 -1146l403 1146h529v-268h-144v-977h144v-268h-568v268h144v867l-395 -1135h-230l-395 1135v-867h144v-268h-569z" />
    <glyph glyph-name="uni041D" unicode="&#x41d;" horiz-adv-x="1591" 
d="M245 1245h-144v268h569v-268h-144v-342h541v342h-144v268h568v-268h-144v-977h144v-268h-568v268h144v367h-541v-367h144v-268h-569v268h144v977z" />
    <glyph glyph-name="uni041E" unicode="&#x41e;" horiz-adv-x="1724" 
d="M874 1540q158 0 302 -62t248 -166.5t165.5 -249.5t61.5 -304q0 -218 -103 -398t-282 -283.5t-396 -103.5q-164 0 -311.5 61t-253.5 165.5t-168.5 250t-62.5 306.5q0 163 62 308.5t168 249.5t254.5 165t315.5 61zM856 1270q-207 0 -353.5 -149.5t-146.5 -362.5
q0 -107 40 -202t108 -163.5t163 -108.5t201 -40q215 0 357.5 145t142.5 365q0 223 -145.5 369.5t-366.5 146.5z" />
    <glyph glyph-name="uni041F" unicode="&#x41f;" horiz-adv-x="1544" 
d="M100 0v268h144v977h-144v268h1362v-268h-144v-977h144v-268h-569v268h144v977h-512v-977h144v-268h-569z" />
    <glyph glyph-name="uni0420" unicode="&#x420;" horiz-adv-x="1256" 
d="M526 844h82q128 0 192 20q60 17 94.5 64t34.5 112q0 72 -35 123t-96 68q-60 14 -178 14h-94v-401zM101 0v268h144v977h-144v268h519q155 0 243.5 -17t156.5 -60q92 -60 142 -161t50 -228q0 -135 -56.5 -245t-154.5 -165q-62 -34 -147 -48t-238 -14h-90v-307h144v-268
h-569z" />
    <glyph glyph-name="uni0421" unicode="&#x421;" horiz-adv-x="1642" 
d="M1255 1079q-77 100 -171 145.5t-226 45.5q-237 0 -377 -166q-58 -67 -91.5 -159t-33.5 -185q0 -139 68 -258t185 -188.5t255 -69.5q109 0 195.5 41t179.5 137h330q-89 -207 -277.5 -328t-421.5 -121q-109 0 -212.5 28t-190.5 79t-160.5 123.5t-124.5 159t-79.5 189
t-28.5 210.5q0 158 62 302t166 248t248 166t302 62q143 0 276 -47q93 -34 173 -108v128h268v-434h-314z" />
    <glyph glyph-name="uni0422" unicode="&#x422;" horiz-adv-x="1245" 
d="M1213 1513v-412h-288v144h-143v-977h144v-268h-568v268h144v977h-143v-144h-288v412h1142z" />
    <glyph glyph-name="uni0423" unicode="&#x423;" horiz-adv-x="1284" 
d="M179 1245h-132v268h507v-268h-80l195 -502l199 502h-78v268h508v-268h-132l-523 -1245h-367v268h205l51 129z" />
    <glyph glyph-name="uni0424" unicode="&#x424;" horiz-adv-x="1660" 
d="M971 1149v-758q155 35 250.5 139t95.5 240t-95.5 240t-250.5 139zM690 391v756q-155 -36 -250.5 -139t-95.5 -238q0 -136 95.5 -240t250.5 -139zM690 1423v90h281v-90q274 -42 451 -224t177 -429t-177 -429t-451 -224v-117h-281v117q-179 27 -322 118.5t-225 231.5
t-82 303t82 303t225 231.5t322 118.5z" />
    <glyph glyph-name="uni0425" unicode="&#x425;" horiz-adv-x="1416" 
d="M101 0v268h129l336 486l-337 491h-128v268h550v-268h-93l173 -260l179 260h-94v268h548v-268h-129l-340 -491l338 -486h131v-268h-550v268h94l-177 254l-171 -254h93v-268h-552z" />
    <glyph glyph-name="uni0426" unicode="&#x426;" horiz-adv-x="1601" 
d="M243 1245h-144v268h569v-268h-144v-977h492v977h-144v268h568v-268h-144v-977h225v-565h-196l-58 297h-1168v268h144v977z" />
    <glyph glyph-name="uni0427" unicode="&#x427;" horiz-adv-x="1528" 
d="M244 1245h-144v268h569v-268h-144v-170q0 -141 50.5 -200.5t172.5 -59.5q143 0 252 23v407h-144v268h569v-268h-144v-977h144v-268h-569v268h144v312q-191 -33 -301 -33q-81 0 -146.5 13t-124 45t-98.5 83t-63 131t-23 185v241z" />
    <glyph glyph-name="uni0428" unicode="&#x428;" horiz-adv-x="2039" 
d="M244 1245h-144v268h569v-268h-144v-977h350v977h-124v268h529v-268h-124v-977h350v977h-144v268h569v-268h-144v-977h144v-268h-1831v268h144v977z" />
    <glyph glyph-name="uni0429" unicode="&#x429;" horiz-adv-x="2101" 
d="M244 1245h-144v268h569v-268h-144v-977h350v977h-124v268h529v-268h-124v-977h350v977h-144v268h569v-268h-144v-977h225v-565h-197l-57 297h-1658v268h144v977z" />
    <glyph glyph-name="uni042A" unicode="&#x42a;" horiz-adv-x="1604" 
d="M767 653v-385h112q137 0 216 15q74 17 115.5 65t41.5 117q0 61 -41.5 106t-113.5 62q-79 20 -232 20h-98zM342 0v268h144v977h-150v-144h-288v412h862v-268h-143v-323h100q173 0 268 -13t164 -47q110 -54 173 -162t63 -241q0 -126 -56 -225t-159 -158q-75 -42 -175 -59
t-274 -17h-529z" />
    <glyph glyph-name="uni042B" unicode="&#x42b;" horiz-adv-x="1958" 
d="M525 653v-385h113q135 0 215 15q74 17 115.5 65t41.5 117q0 61 -41.5 106t-113.5 62q-79 20 -232 20h-98zM244 1245h-144v268h569v-268h-144v-323h100q173 0 268 -13t164 -47q110 -54 173 -162t63 -241q0 -126 -56 -225t-159 -158q-75 -42 -175 -59t-274 -17h-529v268
h144v977zM1301 0v268h144v977h-144v268h568v-268h-144v-977h144v-268h-568z" />
    <glyph glyph-name="uni042C" unicode="&#x42c;" horiz-adv-x="1358" 
d="M525 653v-385h113q135 0 215 15q74 17 115.5 65t41.5 117q0 61 -41.5 106t-113.5 62q-79 20 -232 20h-98zM244 1245h-144v268h569v-268h-144v-323h100q173 0 268 -13t164 -47q110 -54 173 -162t63 -241q0 -126 -56 -225t-159 -158q-75 -42 -175 -59t-274 -17h-529v268
h144v977z" />
    <glyph glyph-name="uni042D" unicode="&#x42d;" horiz-adv-x="1642" 
d="M342 1386q79 73 173 107q133 47 276 47q158 0 302 -62t248 -166t166 -248t62 -302q0 -161 -63 -307.5t-169.5 -252t-254 -167.5t-310.5 -62q-233 0 -421 121t-277 328h329q93 -96 179.5 -137t195.5 -41q175 0 312 108.5t180 276.5h-746v268h744q-30 118 -107 207
q-140 166 -377 166q-132 0 -226 -45.5t-171 -145.5h-313v434h268v-127z" />
    <glyph glyph-name="uni042E" unicode="&#x42e;" horiz-adv-x="2380" 
d="M1490 1282q-139 0 -257 -70t-186.5 -190.5t-68.5 -263.5q0 -145 69.5 -266.5t190 -191t264.5 -69.5q220 0 366 149.5t146 373.5q0 227 -149 377.5t-375 150.5zM100 0v268h144v977h-144v268h569v-268h-144v-342h182q34 186 145.5 333.5t283 231.5t372.5 84q161 0 307 -63
t251.5 -169.5t168 -253.5t62.5 -308q0 -166 -61.5 -313.5t-167 -253.5t-252.5 -168t-312 -62q-202 0 -375.5 88t-285.5 241.5t-140 344.5h-178v-367h144v-268h-569z" />
    <glyph glyph-name="uni042F" unicode="&#x42f;" horiz-adv-x="1351" 
d="M843 1245h-125q-181 0 -244 -49q-77 -59 -77 -176q0 -120 73 -174.5t236 -54.5h137v454zM1124 268h144v-268h-569v268h144v312l-397 -580h-346v268h196l213 291q-85 22 -134.5 44.5t-96.5 60.5q-164 132 -164 364q0 231 149 365q75 67 169 93.5t255 26.5h581v-268h-144
v-977z" />
    <glyph glyph-name="uni0430" unicode="&#x430;" horiz-adv-x="1421" 
d="M630 911q-142 0 -234.5 -100t-92.5 -254q0 -149 93.5 -241.5t242.5 -92.5q148 0 238.5 94t90.5 246q0 154 -94.5 251t-243.5 97zM1350 1135v-268h-124v-599h124v-268h-373v147q-82 -93 -169.5 -133.5t-207.5 -40.5q-164 0 -294.5 75.5t-204 210.5t-73.5 304
q0 171 74 307.5t206 213.5t298 77q123 0 212 -42.5t159 -135.5v152h373z" />
    <glyph glyph-name="uni0431" unicode="&#x431;" horiz-adv-x="1333" 
d="M668 895q-132 0 -228 -98t-96 -236q0 -142 96 -240t232 -98q137 0 233 97.5t96 238.5t-96.5 238.5t-236.5 97.5zM676 1139q97 0 188.5 -29t165.5 -82.5t129.5 -125t86 -160t30.5 -183.5q0 -160 -80.5 -295t-219 -213t-302.5 -78q-155 0 -286.5 68.5t-211.5 198.5
q-33 54 -53.5 123t-29 156.5t-11 155t-2.5 175.5q0 345 155 530.5t472 210.5l493 39v-244l-483 -40q-219 -19 -325.5 -123.5t-108.5 -298.5l4 -2q40 78 148 147.5t241 69.5z" />
    <glyph glyph-name="uni0432" unicode="&#x432;" horiz-adv-x="1180" 
d="M471 887v-203h192q84 0 127 27.5t43 74.5t-43.5 74t-126.5 27h-192zM471 485v-237h248q62 0 99.5 32.5t37.5 86.5t-37.5 86t-99.5 32h-248zM199 867h-124v268h591q193 0 310.5 -90t117.5 -259q0 -65 -39.5 -119t-94.5 -77q71 -27 120.5 -83.5t49.5 -139.5
q0 -154 -110 -260.5t-283 -106.5h-662v268h124v599z" />
    <glyph glyph-name="uni0433" unicode="&#x433;" horiz-adv-x="907" 
d="M894 1135v-368h-268v120h-147v-619h124v-268h-520v268h124v599h-124v268h811z" />
    <glyph glyph-name="uni0434" unicode="&#x434;" horiz-adv-x="1384" 
d="M907 248l-215 512l-215 -512h430zM811 1135l379 -887h174v-518h-195l-57 270h-838l-57 -270h-197v518h175l264 619h-124v268h476z" />
    <glyph glyph-name="uni0435" unicode="&#x435;" horiz-adv-x="1298" 
d="M344 686h629q-26 109 -107 167t-207 58q-122 0 -202.5 -57.5t-112.5 -167.5zM1231 446h-879q25 -103 109 -163t205 -60q84 0 140 25.5t109 87.5h297q-24 -77 -90 -158q-176 -205 -450 -205q-128 0 -242 46t-195.5 124.5t-129.5 188t-48 231.5q0 164 79.5 301.5t217 217
t301.5 79.5q167 0 301 -78.5t209.5 -218t75.5 -313.5q0 -56 -10 -105z" />
    <glyph glyph-name="uni0436" unicode="&#x436;" horiz-adv-x="1636" 
d="M969 600l194 287h-76v248h470v-248h-81l-224 -307l253 -312h118v-268h-267l-387 530v-530h-272v530l-387 -530h-267v268h118l253 312l-224 307h-81v248h226l362 -535v267h-104v268h376v-535z" />
    <glyph glyph-name="uni0437" unicode="&#x437;" horiz-adv-x="978" 
d="M314 1050q75 113 207 113q123 0 237 -104.5t114 -253.5q0 -70 -44.5 -130t-116.5 -77v-2q85 -22 143.5 -90.5t58.5 -147.5q0 -105 -58 -193.5t-157.5 -140t-216.5 -51.5q-176 0 -298.5 112.5t-133.5 272.5h270q6 -59 51 -97t111 -38t112 39t46 96q0 36 -11.5 61.5
t-30.5 40.5t-50.5 23.5t-63 11t-77.5 3.5v180q105 0 153.5 28.5t48.5 98.5q0 45 -37 77.5t-90 32.5q-56 0 -93 -31t-46 -79h-256v330h228v-85z" />
    <glyph glyph-name="uni0438" unicode="&#x438;" horiz-adv-x="1403" 
d="M1382 1135v-268h-124v-599h124v-268h-518v268h124v482l-508 -750h-400v268h124v599h-124v268h518v-268h-124v-482l508 750h400z" />
    <glyph glyph-name="uni0439" unicode="&#x439;" horiz-adv-x="1399" 
d="M390 1528h207q0 -77 31 -111.5t100 -34.5t100 34.5t31 111.5h207q-45 -266 -338 -266t-338 266zM1378 1135v-268h-124v-599h124v-268h-518v268h124v482l-508 -750h-400v268h124v599h-124v268h518v-268h-124v-482l508 750h400z" />
    <glyph glyph-name="uni043A" unicode="&#x43a;" horiz-adv-x="1140" 
d="M677 887h-76v248h470v-248h-81l-224 -307l253 -312h118v-268h-267l-387 530v-530h-396v268h124v599h-124v268h396v-535z" />
    <glyph glyph-name="uni043B" unicode="&#x43b;" horiz-adv-x="1196" 
d="M16 0v268h113l249 599h-123v268h448l361 -867h112v-268h-465v268h72l-186 486l-186 -486h71v-268h-466z" />
    <glyph glyph-name="uni043C" unicode="&#x43c;" horiz-adv-x="1658" 
d="M1643 1135v-268h-124v-599h124v-268h-520v268h124v482l-301 -514h-160l-301 514v-482h124v-268h-520v268h124v599h-124v268h435l342 -582l342 582h435z" />
    <glyph glyph-name="uni043D" unicode="&#x43d;" horiz-adv-x="1398" 
d="M215 867h-124v268h520v-268h-124v-171h500v171h-124v268h520v-268h-124v-599h124v-268h-520v268h124v181h-500v-181h124v-268h-520v268h124v599z" />
    <glyph glyph-name="uni043E" unicode="&#x43e;" horiz-adv-x="1320" 
d="M666 1161q162 0 300 -80t218 -217.5t80 -298.5q0 -160 -80.5 -296.5t-219.5 -216t-302 -79.5q-164 0 -303.5 79.5t-220.5 216t-81 296.5q0 122 47.5 232.5t129 190t194.5 126.5t238 47zM655 911q-132 0 -227.5 -101.5t-95.5 -242.5q0 -142 96 -243t231 -101
q136 0 233 100.5t97 241.5q0 146 -97 246t-237 100z" />
    <glyph glyph-name="uni043F" unicode="&#x43f;" horiz-adv-x="1395" 
d="M215 867h-124v268h1292v-268h-124v-599h124v-268h-520v268h124v619h-500v-619h124v-268h-520v268h124v599z" />
    <glyph glyph-name="uni0440" unicode="&#x440;" horiz-adv-x="1412" 
d="M764 911q-138 0 -231.5 -99.5t-93.5 -248.5q0 -145 96 -242.5t237 -97.5q137 0 230.5 98.5t93.5 243.5q0 150 -94 248t-238 98zM59 -379v268h124v978h-124v268h373v-134q135 160 373 160q162 0 291 -75.5t201.5 -210.5t72.5 -304q0 -170 -73 -306.5t-202.5 -214
t-291.5 -77.5q-104 0 -187 32t-161 101v-217h124v-268h-520z" />
    <glyph glyph-name="uni0441" unicode="&#x441;" horiz-adv-x="1280" 
d="M920 756q-80 155 -265 155q-142 0 -232.5 -95.5t-90.5 -246.5q0 -149 94.5 -247.5t235.5 -98.5q84 0 145.5 36t112.5 114h307q-71 -191 -217.5 -295.5t-345.5 -104.5q-124 0 -236.5 47t-193.5 126t-129 189t-48 232q0 164 79 300.5t216.5 215t302.5 78.5q95 -6 173.5 -45
t130.5 -101v120h268v-379h-307z" />
    <glyph glyph-name="uni0442" unicode="&#x442;" horiz-adv-x="1195" 
d="M1176 1135v-368h-268v120h-147v-619h124v-268h-520v268h124v619h-146v-120h-268v368h1101z" />
    <glyph glyph-name="uni0443" unicode="&#x443;" horiz-adv-x="1188" 
d="M227 -379v268h118l95 217l-308 761h-108v268h455v-268h-52l160 -468l175 468h-44v268h457v-268h-116l-423 -978h114v-268h-523z" />
    <glyph glyph-name="uni0444" unicode="&#x444;" horiz-adv-x="1595" 
d="M662 903q-167 -23 -243.5 -106.5t-76.5 -231.5t76.5 -230.5t243.5 -103.5v672zM934 231q168 21 243.5 103.5t75.5 230.5t-75.5 231.5t-243.5 106.5v-672zM538 -379v268h124v91q-309 26 -451.5 173t-142.5 412t142.5 414t451.5 176v90h-124v268h396v-358q310 -26 452 -175
t142 -415q0 -265 -142 -412t-452 -173v-91h124v-268h-520z" />
    <glyph glyph-name="uni0445" unicode="&#x445;" horiz-adv-x="1143" 
d="M44 0v268h130l218 318l-179 281h-120v268h382v-208l80 -134l77 131v211h382v-268h-120l-177 -281l219 -318h130v-268h-397v203l-114 186l-113 -185v-204h-398z" />
    <glyph glyph-name="uni0446" unicode="&#x446;" horiz-adv-x="1433" 
d="M206 867h-124v268h520v-268h-124v-619h457v619h-124v268h520v-268h-124v-619h217v-518h-196l-58 270h-1088v268h124v599z" />
    <glyph glyph-name="uni0447" unicode="&#x447;" horiz-adv-x="1255" 
d="M206 867h-124v268h396v-330q0 -103 39 -139.5t149 -36.5q94 0 179 18v220h-124v268h520v-268h-124v-599h124v-268h-520v268h124v140q-143 -27 -250 -27q-183 0 -286 111.5t-103 312.5v62z" />
    <glyph glyph-name="uni0448" unicode="&#x448;" horiz-adv-x="1831" 
d="M208 867h-124v268h520v-268h-124v-619h334v619h-124v268h520v-268h-124v-619h334v619h-124v268h520v-268h-124v-599h124v-268h-1732v268h124v599z" />
    <glyph glyph-name="uni0449" unicode="&#x449;" horiz-adv-x="1936" 
d="M207 867h-124v268h520v-268h-124v-619h334v619h-124v268h520v-268h-124v-619h334v619h-124v268h520v-268h-124v-619h217v-518h-196l-57 270h-1572v268h124v599z" />
    <glyph glyph-name="uni044A" unicode="&#x44a;" horiz-adv-x="1381" 
d="M719 498v-250h209q61 0 99 35t38 90t-38 90t-99 35h-209zM320 887v-120h-268v368h791v-268h-124v-122h227q173 0 283.5 -108.5t110.5 -263.5t-110.5 -264t-283.5 -109h-623v268h124v619h-127z" />
    <glyph glyph-name="uni044B" unicode="&#x44b;" horiz-adv-x="1662" 
d="M479 498v-250h209q61 0 99 35t38 90t-38 90t-99 35h-209zM207 867h-124v268h520v-268h-124v-122h227q173 0 283.5 -108.5t110.5 -263.5t-110.5 -264t-283.5 -109h-623v268h124v599zM1128 0v268h124v599h-124v268h520v-268h-124v-599h124v-268h-520z" />
    <glyph glyph-name="uni044C" unicode="&#x44c;" horiz-adv-x="1114" 
d="M457 498v-250h209q61 0 99 35t38 90t-38 90t-99 35h-209zM185 867h-124v268h520v-268h-124v-122h227q173 0 283.5 -108.5t110.5 -263.5t-110.5 -264t-283.5 -109h-623v268h124v599z" />
    <glyph glyph-name="uni044D" unicode="&#x44d;" horiz-adv-x="1267" 
d="M301 1036q135 125 311 125q165 0 302.5 -78.5t216.5 -215t79 -300.5q0 -162 -81 -299t-220.5 -216t-304.5 -79q-192 0 -334.5 96t-216.5 273h318q91 -119 235 -119q109 0 193.5 62.5t118.5 165.5h-480v239h482q-31 102 -113.5 161.5t-194.5 59.5q-165 0 -245 -125h-314
v349h248v-99z" />
    <glyph glyph-name="uni044E" unicode="&#x44e;" horiz-adv-x="1839" 
d="M1184 920q-135 0 -233.5 -104.5t-98.5 -248.5q0 -146 99 -249t237 -103q140 0 239 102.5t99 247.5q0 149 -99.5 252t-242.5 103zM185 867h-124v268h396v-439h135q45 206 213 339.5t389 133.5q123 0 235 -48t193.5 -129t129.5 -193t48 -234q0 -162 -82 -300.5t-222.5 -219
t-305.5 -80.5q-221 0 -389.5 138t-210.5 346h-133v-449h-396v268h124v599z" />
    <glyph glyph-name="uni044F" unicode="&#x44f;" horiz-adv-x="1121" 
d="M712 641v246h-179q-61 0 -99 -34.5t-38 -88.5t38 -88.5t99 -34.5h179zM1108 1135v-268h-124v-599h124v-268h-396v393h-66l-240 -393h-327v268h184l103 150q-112 41 -178 135.5t-66 210.5q0 155 110 263t283 108h593z" />
    <glyph glyph-name="uni0450" unicode="&#x450;" horiz-adv-x="1298" 
d="M344 686h629q-26 109 -107 167t-207 58q-122 0 -202.5 -57.5t-112.5 -167.5zM1231 446h-879q25 -103 109 -163t205 -60q84 0 140 25.5t109 87.5h297q-24 -77 -90 -158q-176 -205 -450 -205q-128 0 -242 46t-195.5 124.5t-129.5 188t-48 231.5q0 164 79.5 301.5t217 217
t301.5 79.5q167 0 301 -78.5t209.5 -218t75.5 -313.5q0 -56 -10 -105zM289 1509l117 181l454 -273l-108 -162z" />
    <glyph glyph-name="uni0451" unicode="&#x451;" horiz-adv-x="1298" 
d="M344 686h629q-26 109 -107 167t-207 58q-122 0 -202.5 -57.5t-112.5 -167.5zM1231 446h-879q25 -103 109 -163t205 -60q84 0 140 25.5t109 87.5h297q-24 -77 -90 -158q-176 -205 -450 -205q-128 0 -242 46t-195.5 124.5t-129.5 188t-48 231.5q0 164 79.5 301.5t217 217
t301.5 79.5q167 0 301 -78.5t209.5 -218t75.5 -313.5q0 -56 -10 -105zM743 1290v273h273v-273h-273zM313 1290v273h273v-273h-273z" />
    <glyph glyph-name="uni0452" unicode="&#x452;" horiz-adv-x="1382" 
d="M126 0v268h144v767h-243v139h243v71h-144v268h417v-339h286v-139h-286v-179q62 56 130.5 81.5t157.5 25.5q125 0 222.5 -49t152.5 -140q38 -63 54 -138.5t16 -195.5v-440q0 -104 -68.5 -193t-173 -137.5t-215.5 -48.5v248q80 0 132.5 43t52.5 115v352q0 180 -51 256
t-171 76q-143 0 -202 -115q-37 -67 -37 -221v-107h144v-268h-561z" />
    <glyph glyph-name="uni0453" unicode="&#x453;" horiz-adv-x="907" 
d="M322 1255l-105 160l459 275l110 -189zM894 1135v-368h-268v120h-147v-619h124v-268h-520v268h124v599h-124v268h811z" />
    <glyph glyph-name="uni0454" unicode="&#x454;" horiz-adv-x="1267" 
d="M962 1135h248v-349h-314q-80 125 -245 125q-112 0 -194.5 -59.5t-113.5 -161.5h482v-239h-480q34 -103 118.5 -165.5t193.5 -62.5q144 0 235 119h318q-74 -177 -216.5 -273t-334.5 -96q-165 0 -304.5 79t-220.5 216t-81 299q0 164 79 300.5t216.5 215t302.5 78.5
q176 0 311 -125v99z" />
    <glyph glyph-name="uni0455" unicode="&#x455;" horiz-adv-x="961" 
d="M641 1051v84h218v-314h-266q-18 90 -106 90q-44 0 -74.5 -27.5t-30.5 -68.5q0 -52 53 -76q29 -12 140 -47q172 -53 243.5 -128t71.5 -204q0 -163 -118 -275t-288 -112q-137 18 -197 124v-97h-218v360h274q20 -72 56 -104.5t96 -32.5q54 0 88.5 31.5t34.5 79.5
q0 56 -52 88q-22 13 -43 22t-98 35q-170 57 -242.5 134t-72.5 202q0 146 108.5 246t214.5 100q135 0 208 -110z" />
    <glyph glyph-name="uni0456" unicode="&#x456;" horiz-adv-x="602" 
d="M214 1257v256h272v-256h-272zM90 0v268h124v599h-124v268h396v-867h124v-268h-520z" />
    <glyph glyph-name="uni0457" unicode="&#x457;" horiz-adv-x="713" 
d="M27 1290v273h272v-273h-272zM118 0v268h124v599h-124v268h396v-867h124v-268h-520zM457 1290v273h272v-273h-272z" />
    <glyph glyph-name="uni0458" unicode="&#x458;" horiz-adv-x="577" 
d="M183 1257v256h273v-256h-273zM456 1135v-1059q0 -127 -29 -212.5t-92 -144.5q-106 -98 -264 -98v264q41 7 61 15t33 31t15.5 54.5t2.5 96.5v785h-124v268h397z" />
    <glyph glyph-name="uni0459" unicode="&#x459;" horiz-adv-x="1665" 
d="M999 498v-250h209q61 0 99.5 35.5t38.5 89.5t-38.5 89.5t-99.5 35.5h-209zM727 268v416l-251 -416h95v-268h-516v268h120l381 599h-123v268h566v-390h228q173 0 283 -108.5t110 -263.5t-110 -264t-283 -109h-574v268h74z" />
    <glyph glyph-name="uni045A" unicode="&#x45a;" horiz-adv-x="1880" 
d="M1208 498v-250h209q61 0 99.5 35.5t38.5 89.5t-38.5 89.5t-99.5 35.5h-209zM189 867h-124v268h520v-268h-124v-171h475v171h-124v268h520v-268h-124v-122h228q173 0 283 -108.5t110 -263.5t-110 -264t-283 -109h-500v449h-475v-181h124v-268h-520v268h124v599z" />
    <glyph glyph-name="uni045B" unicode="&#x45b;" horiz-adv-x="1425" 
d="M126 0v268h144v767h-243v139h243v71h-144v268h417v-339h286v-139h-286v-179q62 56 130.5 81.5t157.5 25.5q125 0 222.5 -49t152.5 -140q38 -63 54 -138.5t16 -195.5v-172h144v-268h-416v379q0 180 -51 256t-171 76q-143 0 -202 -115q-37 -67 -37 -221v-107h144v-268h-561
z" />
    <glyph glyph-name="uni045C" unicode="&#x45c;" horiz-adv-x="1134" 
d="M514 1255l-105 160l459 275l110 -189zM677 887h-76v248h470v-248h-81l-224 -307l253 -312h118v-268h-267l-387 530v-530h-396v268h124v599h-124v268h396v-535z" />
    <glyph glyph-name="uni045D" unicode="&#x45d;" horiz-adv-x="1399" 
d="M284 1509l117 181l454 -273l-108 -162zM1382 1135v-268h-124v-599h124v-268h-518v268h124v482l-508 -750h-400v268h124v599h-124v268h518v-268h-124v-482l508 750h400z" />
    <glyph glyph-name="uni045E" unicode="&#x45e;" horiz-adv-x="1210" 
d="M269 1528h207q0 -77 31 -111.5t100 -34.5t100 34.5t31 111.5h207q-45 -266 -338 -266t-338 266zM235 -379v268h118l95 217l-308 761h-108v268h455v-268h-52l160 -468l175 468h-44v268h457v-268h-116l-423 -978h114v-268h-523z" />
    <glyph glyph-name="uni045F" unicode="&#x45f;" horiz-adv-x="1388" 
d="M204 867h-124v268h520v-268h-124v-619h500v619h-124v268h520v-268h-124v-599h124v-268h-497l-55 -285h-188l-56 285h-496v268h124v599z" />
    <glyph glyph-name="uni0462" unicode="&#x462;" horiz-adv-x="1374" 
d="M551 633v-365h113q136 0 215 15q157 37 157 172q0 120 -155 157q-82 21 -232 21h-98zM270 1245h-144v268h569v-268h-144v-97h295v-169h-295v-78h100q175 0 269 -12.5t163 -46.5q111 -54 173.5 -158t62.5 -235q0 -124 -55.5 -219t-159.5 -154q-75 -42 -175 -59t-274 -17
h-529v268h144v711h-256v169h256v97z" />
    <glyph glyph-name="uni0463" unicode="&#x463;" horiz-adv-x="1212" 
d="M547 483v-235h209q62 0 99.5 32.5t37.5 86.5t-37.5 85t-99.5 31h-209zM274 1245h-124v268h521v-268h-124v-119h258v-248h-258v-147h227q174 0 283.5 -105t109.5 -259t-110 -260.5t-283 -106.5h-624v268h124v610h-237v248h237v119z" />
    <glyph glyph-name="uni0490" unicode="&#x490;" horiz-adv-x="1133" 
d="M97 0v268h144v977h-144v268h693l66 238h182v-506h-516v-977h144v-268h-569z" />
    <glyph glyph-name="uni0491" unicode="&#x491;" horiz-adv-x="855" 
d="M79 0v268h124v599h-124v268h537l64 235h166v-483h-371v-619h124v-268h-520z" />
    <glyph glyph-name="uni2000" unicode="&#x2000;" horiz-adv-x="1024" 
 />
    <glyph glyph-name="uni2001" unicode="&#x2001;" horiz-adv-x="2048" 
 />
    <glyph glyph-name="uni2002" unicode="&#x2002;" horiz-adv-x="1024" 
 />
    <glyph glyph-name="uni2003" unicode="&#x2003;" horiz-adv-x="2048" 
 />
    <glyph glyph-name="uni2004" unicode="&#x2004;" horiz-adv-x="681" 
 />
    <glyph glyph-name="uni2005" unicode="&#x2005;" horiz-adv-x="512" 
 />
    <glyph glyph-name="uni2006" unicode="&#x2006;" horiz-adv-x="342" 
 />
    <glyph glyph-name="uni2007" unicode="&#x2007;" horiz-adv-x="1146" 
 />
    <glyph glyph-name="uni2008" unicode="&#x2008;" 
 />
    <glyph glyph-name="uni2009" unicode="&#x2009;" 
 />
    <glyph glyph-name="uni200A" unicode="&#x200a;" 
 />
    <glyph glyph-name="uni200B" unicode="&#x200b;" 
 />
    <glyph glyph-name="uni200C" unicode="&#x200c;" 
 />
    <glyph glyph-name="uni200D" unicode="&#x200d;" 
 />
    <glyph glyph-name="uni2010" unicode="&#x2010;" horiz-adv-x="690" 
d="M61 469v242h568v-242h-568z" />
    <glyph glyph-name="uni2011" unicode="&#x2011;" horiz-adv-x="690" 
d="M61 469v242h568v-242h-568z" />
    <glyph glyph-name="figuredash" unicode="&#x2012;" horiz-adv-x="1146" 
d="M61 469v242h1024v-242h-1024z" />
    <glyph glyph-name="endash" unicode="&#x2013;" horiz-adv-x="1024" 
d="M0 469v242h1024v-242h-1024z" />
    <glyph glyph-name="emdash" unicode="&#x2014;" horiz-adv-x="2048" 
d="M0 469v242h2048v-242h-2048z" />
    <glyph glyph-name="uni2015" unicode="&#x2015;" horiz-adv-x="2048" 
d="M0 469v242h2048v-242h-2048z" />
    <glyph glyph-name="quoteleft" unicode="&#x2018;" horiz-adv-x="600" 
d="M436 1227v-273h-272v287q0 74 20.5 122.5t67.5 88.5q73 61 184 61v-137q-65 -12 -93 -38.5t-28 -75.5q0 -23 2 -35h119z" />
    <glyph glyph-name="quoteright" unicode="&#x2019;" horiz-adv-x="600" 
d="M164 1251v262h272v-286q0 -172 -135 -244q-57 -29 -137 -29v138q65 12 93 40t28 80q0 25 -2 39h-119z" />
    <glyph glyph-name="quotesinglbase" unicode="&#x201a;" horiz-adv-x="600" 
d="M164 0v262h272v-276q0 -172 -135 -244q-57 -29 -137 -29v137q64 12 92.5 38.5t28.5 74.5q0 23 -2 37h-119z" />
    <glyph glyph-name="quotedblleft" unicode="&#x201c;" horiz-adv-x="1024" 
d="M436 1227v-273h-272v287q0 74 20.5 122.5t67.5 88.5q73 61 184 61v-137q-66 -12 -93.5 -37.5t-27.5 -76.5q0 -23 2 -35h119zM860 1227v-273h-272v287q0 74 20.5 122.5t67.5 88.5q73 61 184 61v-137q-64 -12 -92.5 -38.5t-28.5 -73.5q0 -23 2 -37h119z" />
    <glyph glyph-name="quotedblright" unicode="&#x201d;" horiz-adv-x="1024" 
d="M164 1251v262h272v-286q0 -172 -135 -244q-57 -29 -137 -29v138q64 12 92.5 40t28.5 80q0 25 -2 39h-119zM588 1251v262h272v-286q0 -172 -135 -244q-59 -29 -137 -29v138q65 12 93 40t28 80q0 25 -2 39h-119z" />
    <glyph glyph-name="quotedblbase" unicode="&#x201e;" horiz-adv-x="1024" 
d="M164 0v262h272v-276q0 -172 -135 -244q-57 -29 -137 -29v137q64 12 92.5 38.5t28.5 74.5q0 23 -2 37h-119zM588 0v262h272v-276q0 -172 -135 -244q-57 -29 -137 -29v137q64 12 92.5 38.5t28.5 74.5q0 23 -2 37h-119z" />
    <glyph glyph-name="dagger" unicode="&#x2020;" horiz-adv-x="1140" 
d="M709 1513v-378h329v-242h-329v-1155h-273v1155h-334v242h334v378h273z" />
    <glyph glyph-name="daggerdbl" unicode="&#x2021;" horiz-adv-x="1140" 
d="M707 1513v-303h331v-241h-331v-195h331v-242h-331v-794h-273v794h-332v242h332v195h-332v241h332v303h273z" />
    <glyph glyph-name="bullet" unicode="&#x2022;" horiz-adv-x="1228" 
d="M618 991q139 0 239.5 -101.5t100.5 -242.5q0 -144 -101.5 -245t-244.5 -101q-141 0 -242.5 101.5t-101.5 242.5q0 145 101.5 245.5t248.5 100.5z" />
    <glyph glyph-name="ellipsis" unicode="&#x2026;" horiz-adv-x="2048" 
d="M205 0v262h272v-262h-272zM1569 0v262h272v-262h-272zM887 0v262h272v-262h-272z" />
    <glyph glyph-name="perthousand" unicode="&#x2030;" horiz-adv-x="2607" 
d="M2187 496q-61 0 -104 -44.5t-43 -107.5t43.5 -107t105.5 -44q63 0 107.5 44t44.5 107t-45 107.5t-109 44.5zM416 1323q-61 0 -104.5 -44.5t-43.5 -107.5t44 -107t106 -44q63 0 107 44t44 107t-44.5 107.5t-108.5 44.5zM1341 496q-61 0 -104 -44.5t-43 -107.5t43.5 -107
t105.5 -44q63 0 107.5 44t44.5 107t-45 107.5t-109 44.5zM1085 1513h211l-626 -1513h-209zM420 1540q151 0 259.5 -109t108.5 -260q0 -154 -108 -262t-262 -108t-262.5 108t-108.5 260q0 157 108 264t265 107zM1346 713q151 0 259.5 -109t108.5 -260q0 -154 -108.5 -262.5
t-262.5 -108.5q-153 0 -261.5 108.5t-108.5 260.5q0 157 108 264t265 107zM2191 713q151 0 260 -109t109 -260q0 -154 -108.5 -262.5t-262.5 -108.5q-153 0 -261.5 108.5t-108.5 260.5q0 157 107.5 264t264.5 107z" />
    <glyph glyph-name="guilsinglleft" unicode="&#x2039;" horiz-adv-x="505" 
d="M377 221l-285 268v205l285 267v-252l-137 -117l137 -119v-252z" />
    <glyph glyph-name="guilsinglright" unicode="&#x203a;" horiz-adv-x="505" 
d="M129 221v252l137 119l-137 117v252l285 -267v-205z" />
    <glyph glyph-name="fraction" unicode="&#x2044;" horiz-adv-x="327" 
d="M-248 0l627 1513h194l-626 -1513h-195z" />
    <glyph glyph-name="Euro" unicode="&#x20ac;" horiz-adv-x="1591" 
d="M1456 76q-179 -103 -389 -103q-232 0 -424 123.5t-289 325.5h-309l88 252h149q-4 54 -4 82v24h-229l88 252h192q86 226 287 367t451 141q272 0 489 -170l-100 -287q-70 88 -172 137.5t-217 49.5q-131 0 -244 -64.5t-182 -173.5h799l-89 -252h-790v-24q0 -42 6 -82h746
l-89 -252h-540q70 -83 170 -130.5t213 -47.5q115 0 217 49t172 135v-352z" />
    <glyph glyph-name="uni20BD" unicode="&#x20bd;" horiz-adv-x="1146" 
d="M453 868h73q118 0 174 19q54 17 84.5 61t30.5 105q0 69 -30.5 116t-86.5 64q-47 12 -161 12h-84v-377zM49 600v268h123v645h369q146 0 230 -17t147 -58q86 -59 133 -157t47 -222q0 -132 -53.5 -239t-145.5 -161q-59 -33 -138.5 -46t-223.5 -13h-84v-78h393v-268h-393
v-254h-281v254h-123v268h123v78h-123z" />
    <glyph glyph-name="uni2116" unicode="&#x2116;" horiz-adv-x="2150" 
d="M1836 1092q54 0 92.5 39t38.5 94t-38.5 94t-92.5 39t-92.5 -39t-38.5 -94t38.5 -94t92.5 -39zM1836 909q-132 0 -225.5 92.5t-93.5 223.5q0 130 93.5 222.5t225.5 92.5t226 -92.5t94 -222.5t-94 -223t-226 -93zM1 0v268h144v977h-144v268h464l539 -1036v768h-144v268h568
v-268h-144v-1245h-319l-539 1036v-768h144v-268h-569zM1521 629v207h631v-207h-631z" />
    <glyph glyph-name="trademark" unicode="&#x2122;" horiz-adv-x="2092" 
d="M272 1360v-85h-170v238h723v-238h-170v85h-108v-494h85v-159h-336v159h85v494h-109zM897 707v159h85v488h-85v159h333l233 -526l250 526h327v-159h-85v-488h85v-159h-336v159h85v428l-271 -587h-108l-262 585v-426h85v-159h-336z" />
    <glyph glyph-name="minus" unicode="&#x2212;" horiz-adv-x="1228" 
d="M1130 881v-242h-1032v242h1032z" />
    <glyph glyph-name="zero.fitted" unicode="&#xe000;" horiz-adv-x="1161" 
d="M346 1020v-506q0 -141 61.5 -216t178.5 -75q229 0 229 285v512q0 130 -60.5 200t-171.5 70q-110 0 -173.5 -72t-63.5 -198zM1087 1034v-528q0 -252 -130 -392.5t-363 -140.5q-279 0 -424 193q-96 130 -96 340v514q0 239 137 379.5t370 140.5q230 0 368 -138t138 -368z
" />
    <glyph glyph-name="one.fitted" unicode="&#xe001;" horiz-adv-x="708" 
d="M120 0v268h144v989h-190v256h463v-1245h144v-268h-561z" />
    <glyph glyph-name="two.fitted" unicode="&#xe002;" horiz-adv-x="1142" 
d="M1063 0h-979v240l539 510q93 87 133.5 158t40.5 145q0 101 -62.5 169t-156.5 68q-106 0 -171 -82t-65 -217h-268q0 113 20 190.5t66 147.5q66 99 176 155t239 56q212 0 353 -140t141 -351q0 -139 -63.5 -250t-229.5 -262l-309 -281h308v144h288v-400z" />
    <glyph glyph-name="three.fitted" unicode="&#xe003;" horiz-adv-x="1126" 
d="M455 729v262q98 3 149 23q84 38 84 133q0 63 -37 103t-96 40q-57 0 -87.5 -33t-39.5 -104h-276q8 96 30.5 154t73.5 110q117 123 297 123q175 0 291.5 -116t116.5 -291q0 -88 -30.5 -151t-96.5 -110q235 -107 235 -391q0 -220 -144 -364t-364 -144q-218 0 -364 136
t-158 350h274q14 -108 80.5 -172t165.5 -64q103 0 170.5 71.5t67.5 180.5q0 116 -80.5 185t-216.5 69h-45z" />
    <glyph glyph-name="four.fitted" unicode="&#xe004;" horiz-adv-x="1173" 
d="M694 721v434l-377 -434h377zM550 0v268h144v209h-654v222l697 814h229v-792h160v-244h-160v-209h144v-268h-560z" />
    <glyph glyph-name="five.fitted" unicode="&#xe005;" horiz-adv-x="1146" 
d="M121 723l141 790h684v-256h-479l-49 -278q58 25 99.5 34t94.5 9q207 0 343 -146.5t136 -369.5q0 -229 -146.5 -381t-367.5 -152q-140 0 -258 63t-189.5 173t-78.5 244h272q22 -111 85 -170.5t161 -59.5q110 0 180 78t70 201q0 116 -70 193t-176 77q-65 0 -112.5 -26
t-98.5 -89z" />
    <glyph glyph-name="six.fitted" unicode="&#xe006;" horiz-adv-x="1159" 
d="M573 758q-107 0 -176 -76t-69 -193t72.5 -191.5t187.5 -74.5q107 0 175 74t68 192q0 119 -71.5 194t-186.5 75zM600 1513h326l-363 -538q59 20 123 20q182 0 300 -135t118 -344q0 -238 -145.5 -390.5t-372.5 -152.5q-150 0 -272 67.5t-190.5 187.5t-68.5 268
q0 111 33.5 206.5t116.5 217.5z" />
    <glyph glyph-name="seven.fitted" unicode="&#xe007;" horiz-adv-x="985" 
d="M49 1513h891v-256l-553 -1257h-307l573 1257h-316v-144h-288v400z" />
    <glyph glyph-name="eight.fitted" unicode="&#xe008;" horiz-adv-x="1122" 
d="M563 1290q-64 0 -108.5 -48.5t-44.5 -117.5t45.5 -116t110.5 -47t109 48.5t44 118.5q0 69 -45 115.5t-111 46.5zM559 698q-95 0 -162 -69.5t-67 -167.5q0 -100 68 -169t168 -69q97 0 162 68.5t65 171.5q0 99 -67.5 167t-166.5 68zM275 842q-71 75 -98 136t-27 146
q0 173 121.5 294.5t294.5 121.5q178 0 295.5 -117.5t117.5 -294.5q0 -185 -127 -286q49 -30 74 -48.5t47 -43.5q92 -106 92 -275q0 -215 -143.5 -358.5t-358.5 -143.5t-360 144t-145 356q0 158 86 264q24 31 51.5 53.5t79.5 51.5z" />
    <glyph glyph-name="nine.fitted" unicode="&#xe009;" horiz-adv-x="1155" 
d="M565 1290q-104 0 -170.5 -74.5t-66.5 -191.5q0 -118 70.5 -193t180.5 -75q108 0 178 75t70 193q0 119 -72.5 192.5t-189.5 73.5zM555 0h-326l365 539q-68 -25 -123 -25q-178 0 -297 138.5t-119 344.5q0 238 144 390.5t370 152.5q229 0 380 -149t151 -375q0 -108 -34 -203
t-116 -219z" />
    <glyph glyph-name="breve.cyrlc" unicode="&#xe080;" horiz-adv-x="962" 
d="M143 1528h207q0 -77 31 -111.5t100 -34.5t100 34.5t31 111.5h207q-45 -266 -338 -266t-338 266z" />
    <glyph glyph-name="breve.cyruc" unicode="&#xe081;" horiz-adv-x="1011" 
d="M143 1919h236q0 -83 31 -119.5t96 -36.5t96 36.5t31 119.5h235q-24 -142 -121.5 -215.5t-240.5 -73.5t-241 73.5t-122 215.5z" />
    <glyph glyph-name="uni0306.cyr" unicode="&#xe082;" 
d="M-1000 1528h207q0 -77 31 -111.5t100 -34.5t100 34.5t31 111.5h207q-45 -266 -338 -266t-338 266z" />
    <glyph glyph-name="i.dotless" unicode="&#xe090;" horiz-adv-x="493" 
d="M111 0v1135h272v-1135h-272z" />
    <glyph glyph-name="j.dotless" unicode="&#xe091;" horiz-adv-x="522" 
d="M412 1135v-1059q0 -127 -29 -212.5t-92 -144.5q-106 -98 -264 -98v264q41 7 61 15t33 31t15.5 54.5t2.5 96.5v785h-124v268h397z" />
    <glyph glyph-name="uni0456.dotless" unicode="&#xe092;" horiz-adv-x="493" 
d="M111 0v1135h272v-1135h-272z" />
    <glyph glyph-name="uni0458.dotless" unicode="&#xe093;" horiz-adv-x="522" 
d="M412 1135v-1059q0 -127 -29 -212.5t-92 -144.5q-106 -98 -264 -98v264q41 7 61 15t33 31t15.5 54.5t2.5 96.5v785h-124v268h397z" />
    <glyph glyph-name="_378" 
d="M670 1101v144h288v-144h-288z" />
    <glyph glyph-name="_379" 
d="M453 1480q2 1 4 1v272h260v-272q2 0 5 -1h-269zM717 94v-270h-260v270h260z" />
    </font>
</defs>
</svg>
