<svg id="Layer_1" enable-background="new 0 0 510 510" height="512" viewBox="0 0 510 510" width="512" xmlns="http://www.w3.org/2000/svg"><g><g><path d="m150 360h300v30h-300z"/><path d="m60 465c0 24.853 20.147 45 45 45h345v-90h-345c-24.853 0-45 20.147-45 45z"/><path d="m315 75h-30v45h-60v30h60v105h30v-105h60v-30h-60z"/><path d="m150 0v330h300v-330zm255 180h-60v105h-90v-105h-60v-90h60v-45h90v45h60z"/><path d="m120 390v-390h-6c-29.775 0-54 24.224-54 54v351.041c12.544-9.438 28.129-15.041 45-15.041z"/></g></g></svg>