<?xml version="1.0" encoding="utf-8"?>
<!-- Generator: Adobe Illustrator 25.1.0, SVG Export Plug-In . SVG Version: 6.00 Build 0)  -->
<svg version="1.1" id="Layer_1" xmlns="http://www.w3.org/2000/svg" xmlns:xlink="http://www.w3.org/1999/xlink" x="0px" y="0px"
	 viewBox="0 0 512 512" style="enable-background:new 0 0 512 512;" xml:space="preserve">
<style type="text/css">
	.st0{fill:#FFFFFF;}
</style>
<g>
	<g>
		<path class="st0" d="M150.6,361.4h301.2v30.1H150.6V361.4z"/>
		<path class="st0" d="M60.2,466.8c0,25,20.2,45.2,45.2,45.2h346.4v-90.4H105.4C80.5,421.6,60.2,441.9,60.2,466.8z"/>
		<path class="st0" d="M316.2,75.3h-30.1v45.2h-60.2v30.1h60.2V256h30.1V150.6h60.2v-30.1h-60.2V75.3z"/>
		<path class="st0" d="M150.6,0v331.3h301.2V0H150.6z M406.6,180.7h-60.2v105.4H256V180.7h-60.2V90.4H256V45.2h90.4v45.2h60.2V180.7
			z"/>
		<path class="st0" d="M120.5,391.5V0h-6C84.6,0,60.2,24.3,60.2,54.2v352.4c12.6-9.5,28.2-15.1,45.2-15.1H120.5z"/>
	</g>
</g>
</svg>
