<?xml version="1.0" encoding="utf-8"?>
<!-- Generator: Adobe Illustrator 25.1.0, SVG Export Plug-In . SVG Version: 6.00 Build 0)  -->
<svg version="1.1" id="Bold" xmlns="http://www.w3.org/2000/svg" xmlns:xlink="http://www.w3.org/1999/xlink" x="0px" y="0px"
	 viewBox="0 0 512 512" style="enable-background:new 0 0 512 512;" xml:space="preserve">
<style type="text/css">
	.st0{fill:#FFFFFF;}
</style>
<path class="st0" d="M37.3,320h160c20.6,0,37.3-16.7,37.3-37.3V208c0-20.6-16.7-37.3-37.3-37.3h-160C16.7,170.7,0,187.4,0,208v74.7
	C0,303.3,16.7,320,37.3,320z"/>
<path class="st0" d="M37.3,512h160c20.6,0,37.3-16.7,37.3-37.3V400c0-20.6-16.7-37.3-37.3-37.3h-160C16.7,362.7,0,379.4,0,400v74.7
	C0,495.3,16.7,512,37.3,512z"/>
<path class="st0" d="M474.7,170.7h-160c-20.6,0-37.3,16.7-37.3,37.3v266.7c0,20.6,16.7,37.3,37.3,37.3h160
	c20.6,0,37.3-16.7,37.3-37.3V208C512,187.4,495.3,170.7,474.7,170.7z"/>
<path class="st0" d="M474.7,0H208c-20.6,0-37.3,16.7-37.3,37.3v53.3c0,20.6,16.7,37.3,37.3,37.3h266.7c20.6,0,37.3-16.7,37.3-37.3
	V37.3C512,16.7,495.3,0,474.7,0z"/>
<circle class="st0" cx="64" cy="64" r="64"/>
</svg>
