<svg id="Capa_1" enable-background="new 0 0 510 510" height="512" viewBox="0 0 510 510" width="512" xmlns="http://www.w3.org/2000/svg"><g><path id="XMLID_1523_" d="m450 295.112v-40.112h-30v-30h30v-120h-30c0-33.084-26.916-60-60-60h-45v-30h-120v30h-45c-33.084 0-60 26.916-60 60h-30v120h30v30h-30v40.112c-36.285 17.223-60 54.104-60 94.888 0 57.897 47.103 105 105 105s105-47.103 105-105c0-40.784-23.715-77.665-60-94.888v-40.112h-30v-30h30v-120h-30c0-16.542 13.458-30 30-30h45v30h120v-30h45c16.542 0 30 13.458 30 30h-30v120h30v30h-30v40.112c-36.285 17.223-60 54.103-60 94.888 0 57.897 47.103 105 105 105s105-47.103 105-105c0-40.784-23.715-77.665-60-94.888zm-300 94.888c0 24.813-20.186 45-45 45s-45-20.187-45-45c0-24.814 20.187-45 45-45s45 20.186 45 45zm-30-195h-30v-60h30zm165-120h-60v-30h60zm105 60h30v60h-30zm15 300c-24.814 0-45-20.187-45-45 0-24.814 20.186-45 45-45s45 20.186 45 45c0 24.813-20.186 45-45 45z"/></g></svg>