<svg id="Capa_1" enable-background="new 0 0 512 512" height="512" viewBox="0 0 512 512" width="512" xmlns="http://www.w3.org/2000/svg"><g><path d="m256 0c-140.7 0-256 115.3-256 256s115.3 256 256 256 256-115.3 256-256-115.3-256-256-256zm-30 430c0 9.901-9.3 17.1-18.6 14.7-36-9.3-63.3-26.999-83.101-45.3-6.899-6.3-6.298-17.4 1.202-23.1l100.499-75.3zm0-204-131.7 98.699c-8.099 6.301-19.8 2.401-23.099-7.199-6.601-19.201-10.201-39.901-10.201-61.5 0-90.601 62.401-166.8 146.1-188.701 9.6-2.399 18.9 4.801 18.9 14.701zm161.7 173.399c-26.4 24.3-55.8 38.101-82.8 45.3-9.6 2.401-18.9-4.799-18.9-14.699v-129l100.499 75.3c7.5 5.7 8.101 16.8 1.201 23.099zm30-74.7-131.7-98.699v-144c0-9.901 9.3-17.1 18.9-14.702 83.699 21.902 146.1 98.101 146.1 188.702 0 21.599-3.6 42.299-10.201 61.5-3.299 9.6-15 13.5-23.099 7.199z"/></g></svg>