<?xml version="1.0" encoding="utf-8"?>
<!-- Generator: Adobe Illustrator 25.1.0, SVG Export Plug-In . SVG Version: 6.00 Build 0)  -->
<svg version="1.1" id="Capa_1" xmlns="http://www.w3.org/2000/svg" xmlns:xlink="http://www.w3.org/1999/xlink" x="0px" y="0px"
	 viewBox="0 0 512 512" style="enable-background:new 0 0 512 512;" xml:space="preserve">
<style type="text/css">
	.st0{fill:#FFFFFF;}
</style>
<g>
	<path class="st0" d="M256,0C115.3,0,0,115.3,0,256s115.3,256,256,256s256-115.3,256-256S396.7,0,256,0z M226,430
		c0,9.9-9.3,17.1-18.6,14.7c-36-9.3-63.3-27-83.1-45.3c-6.9-6.3-6.3-17.4,1.2-23.1L226,301V430z M226,226L94.3,324.7
		c-8.1,6.3-19.8,2.4-23.1-7.2C64.6,298.3,61,277.6,61,256c0-90.6,62.4-166.8,146.1-188.7c9.6-2.4,18.9,4.8,18.9,14.7V226z
		 M387.7,399.4c-26.4,24.3-55.8,38.1-82.8,45.3c-9.6,2.4-18.9-4.8-18.9-14.7V301l100.5,75.3C394,382,394.6,393.1,387.7,399.4z
		 M417.7,324.7L286,226V82c0-9.9,9.3-17.1,18.9-14.7C388.6,89.2,451,165.4,451,256c0,21.6-3.6,42.3-10.2,61.5
		C437.5,327.1,425.8,331,417.7,324.7z"/>
</g>
</svg>
