<?xml version="1.0" encoding="utf-8"?>
<!-- Generator: Adobe Illustrator 25.1.0, SVG Export Plug-In . SVG Version: 6.00 Build 0)  -->
<svg version="1.1" id="Capa_1" xmlns="http://www.w3.org/2000/svg" xmlns:xlink="http://www.w3.org/1999/xlink" x="0px" y="0px"
	 viewBox="0 0 512 512" style="enable-background:new 0 0 512 512;" xml:space="preserve">
<style type="text/css">
	.st0{fill:#FFFFFF;}
</style>
<g>
	<g>
		<path class="st0" d="M512,14.7c-0.3-13.1-16.3-19.3-25.6-10L145.9,345.2l42.4,42.4L346,295c26.2-13.1,50-30.3,70.6-50.9
			C492.9,167.9,513.1,63.3,512,14.7z"/>
	</g>
</g>
<g>
	<g>
		<path class="st0" d="M124.6,366.4l-43.4,43.4c-11.7,11.7-11.7,30.7,0,42.4c11.7,11.7,30.7,11.7,42.4,0l43.4-43.4L124.6,366.4z"/>
	</g>
</g>
<g>
	<g>
		<circle class="st0" cx="60" cy="473.5" r="30"/>
	</g>
</g>
<g>
	<g>
		<path class="st0" d="M209.5,408.8l-21.2,21.2c11.7,11.7,11.7,30.7,0,42.4c-11.7,11.7-31.7,12.7-43.4,1
			c-7.8,7.8-17.2,12.7-27.1,15.3l5.9,5.9c23.4,23.4,62.5,22.4,85.9-1C232.9,470.3,232.9,432.2,209.5,408.8z"/>
	</g>
</g>
<g>
	<g>
		<path class="st0" d="M430.8,409.8l-43.4-43.4l-42.4,42.4l43.4,43.4c11.7,11.7,30.7,11.7,42.4,0
			C442.5,440.6,442.5,421.6,430.8,409.8z"/>
	</g>
</g>
<g>
	<g>
		<circle class="st0" cx="452" cy="473.5" r="30"/>
	</g>
</g>
<g>
	<g>
		<path class="st0" d="M367.1,473.5c-11.7,11.7-31.7,10.7-43.4-1c-11.7-11.7-11.7-30.7,0-42.4l-21.2-21.2
			c-23.4,23.4-23.4,61.5,0,84.9c23.4,23.4,62.5,24.4,85.9,1l5.9-5.9C384.3,486.2,374.9,481.2,367.1,473.5z"/>
	</g>
</g>
<g>
	<g>
		<path class="st0" d="M25.7,4.7C16.4-4.6,0.4,1.6,0,14.7C-1.1,63.3,19.1,167.9,95.3,244c18.5,18.5,39.9,33.8,63,46.3l76.5-76.5
			L25.7,4.7z"/>
	</g>
</g>
<g>
	<g>
		<polygon class="st0" points="348.9,328 285.6,365.2 323.7,387.6 366.1,345.2 		"/>
	</g>
</g>
</svg>
