<?xml version="1.0" encoding="utf-8"?>
<!-- Generator: Adobe Illustrator 25.1.0, SVG Export Plug-In . SVG Version: 6.00 Build 0)  -->
<svg version="1.1" id="Capa_1" xmlns="http://www.w3.org/2000/svg" xmlns:xlink="http://www.w3.org/1999/xlink" x="0px" y="0px"
	 viewBox="0 0 512 512" style="enable-background:new 0 0 512 512;" xml:space="preserve">
<style type="text/css">
	.st0{fill:#FFFFFF;}
</style>
<g>
	<g>
		<path class="st0" d="M0,191.6V406c0,4.7,2.2,9.2,6,12l117.6,88.5L0,191.6z"/>
	</g>
</g>
<g>
	<g>
		<polygon class="st0" points="209,0 339.9,426.3 363.5,128.7 		"/>
	</g>
</g>
<g>
	<g>
		<path class="st0" d="M508.7,299.3L391.5,154.1l-27.7,349.7l140.9-84.9c4.5-2.7,7.3-7.6,7.3-12.9v-97.3
			C512,305.3,510.8,302,508.7,299.3z"/>
	</g>
</g>
<g>
	<g>
		<path class="st0" d="M178,0.9L69.4,55.2c-3,1.5-5.4,3.9-6.9,6.9L10.8,163.3l306.6,291.7L178,0.9z"/>
	</g>
</g>
<g>
	<g>
		<polygon class="st0" points="332.9,511.4 54.1,243.7 158.2,512 333.1,512 		"/>
	</g>
</g>
</svg>
